<?xml version="1.0" encoding="UTF-8"?>
<svg version="1.1" xmlns="http://www.w3.org/2000/svg" width="1169" height="1169">
<path d="M0 0 C385.77 0 771.54 0 1169 0 C1169 385.77 1169 771.54 1169 1169 C783.23 1169 397.46 1169 0 1169 C0 783.23 0 397.46 0 0 Z " fill="#352C28" transform="translate(0,0)"/>
<path d="M0 0 C10.32459458 5.57528108 18.45881791 16.69341248 25.5625 25.8125 C29.99023183 31.2345295 34.35295375 35.78291646 41.296875 37.6015625 C53.02989092 38.63682861 64.69629646 29.1377504 73.96313477 22.90893555 C87.45344984 13.87914096 87.45344984 13.87914096 96 15 C100.19020391 17.74173836 102.14742614 20.53017009 104.3125 25 C104.6017334 25.59377441 104.8909668 26.18754883 105.18896484 26.79931641 C108.14870373 33.02312535 110.64881289 39.44560847 113.0715332 45.89453125 C114.94479549 50.77917868 117.10182098 55.05882363 120.04248047 59.39306641 C121 61 121 61 121 63 C134.22987903 68.36346447 147.38910009 64.27438355 160.8515625 61.08398438 C177.3246067 57.32936668 177.3246067 57.32936668 184.4375 60.5625 C190.21162471 66.05496009 190.85624003 73.16004987 191.1418457 80.78881836 C191.15636183 82.13912951 191.16754179 83.48947971 191.17578125 84.83984375 C191.19897188 86.33009237 191.2230889 87.82032681 191.24804688 89.31054688 C191.28311582 91.62534254 191.31251223 93.93960969 191.32592773 96.25463867 C191.19236778 108.26820015 191.19236778 108.26820015 196 119 C197.93633057 120.7041693 197.93633057 120.7041693 200.1875 121.4375 C201.22970703 121.86869141 201.22970703 121.86869141 202.29296875 122.30859375 C212.21203692 124.8420354 222.82569384 124.26710069 232.984375 124.34179688 C240.33285698 124.50042375 246.7302945 124.85126285 253 129 C256.46714692 132.72084059 257.38723298 135.47843341 257.29174805 140.52929688 C256.66693898 145.82056695 254.78948132 150.83548045 253.125 155.875 C247.13168036 172.97927238 247.13168036 172.97927238 248 190.6875 C253.24792926 199.37938284 263.96074353 201.03985413 273.125 203.5625 C275.15151384 204.12273161 277.17648304 204.6868675 279.19821167 205.2641449 C281.02653575 205.78606793 282.85910912 206.29303843 284.69189453 206.79907227 C290.83433747 209.02893771 295.46493856 212.48946305 299 218 C300.66513631 225.54379145 297.42653792 232.88340354 293.64379883 239.30078125 C292.17588809 241.52157457 290.66248918 243.70186446 289.125 245.875 C280.89604037 257.46870544 280.89604037 257.46870544 276.375 270.75 C278.93243329 284.04865311 290.96946919 291.27784674 301.06103516 299.08935547 C314.33212412 309.42282396 314.33212412 309.42282396 315.29296875 316.0078125 C314.90842768 323.72711832 310.32801282 327.82154543 305 333 C304.01 333.99 303.02 334.98 302 336 C331.7 336.33 361.4 336.66 392 337 C392 340.96 392 344.92 392 349 C136.91 349 -118.18 349 -381 349 C-381 345.04 -381 341.08 -381 337 C-344.865 336.505 -344.865 336.505 -308 336 C-310.64 333.69 -313.28 331.38 -316 329 C-319.3853381 324.55674375 -322.0499928 320.86392324 -321.51049805 315.11328125 C-319.6736263 307.50928228 -312.12252835 302.33769315 -306.1875 297.9375 C-305.05344727 297.07801758 -305.05344727 297.07801758 -303.89648438 296.20117188 C-302.37304396 295.04657808 -300.8474149 293.89486627 -299.31958008 292.74609375 C-296.9227148 290.94182257 -294.53023558 289.13272264 -292.1484375 287.30859375 C-291.4373584 286.7664624 -290.7262793 286.22433105 -289.99365234 285.66577148 C-286.08754204 282.40206947 -282.72031078 278.88124312 -281.4609375 273.84375 C-280.72064202 262.77828066 -289.35590061 253.40273426 -295.3359375 244.85546875 C-306.99446106 228.12143195 -306.99446106 228.12143195 -306 220 C-300.9844963 209.96899259 -291.02952202 206.49431435 -281.0625 202.9375 C-266.17513075 198.18897194 -266.17513075 198.18897194 -255 188 C-251.8553453 178.56603589 -255.95489347 168.93348545 -258.58203125 159.78588867 C-263.69405295 141.85251661 -263.69405295 141.85251661 -262 133 C-259.0502579 128.62005637 -256.1678238 126.17115671 -251 125 C-246.12707525 124.55420482 -241.26610205 124.48789899 -236.375 124.4375 C-217.91123049 125.17210688 -217.91123049 125.17210688 -202 118 C-195.84808498 106.73480496 -196.73809616 93.99888347 -196.48242188 81.53320312 C-196.07261974 66.54063065 -196.07261974 66.54063065 -192.0625 61.625 C-187.805527 58.27102127 -183.16163613 58.62792924 -178 59 C-168.60102931 60.18068178 -160.0696325 61.88719503 -151.41796875 65.9140625 C-144.89902698 68.84179402 -138.13554092 68.73162621 -131.25 67.125 C-122.73828527 61.55964806 -120.04120194 50.1824678 -117 41 C-109.91590494 19.61060329 -109.91590494 19.61060329 -103 15 C-93.38871167 13.1327763 -85.65160221 18.81481145 -77.984375 23.8828125 C-75.90226008 25.2909935 -73.82417367 26.70514795 -71.75 28.125 C-69.66365964 29.54750479 -67.57518444 30.96688459 -65.484375 32.3828125 C-64.57397461 33.00559082 -63.66357422 33.62836914 -62.72558594 34.27001953 C-56.79200232 38.03617624 -52.03758542 40.39787656 -45 39 C-34.79483367 34.38337714 -27.32715044 21.8012917 -20.75 13.0625 C-15.07210628 5.52206988 -10.08024857 -0.84002071 0 0 Z " fill="#F1F1F1" transform="translate(579,267)"/>
<path d="M0 0 C0.90273651 0.00281982 1.80547302 0.00563965 2.73556519 0.00854492 C57.82244576 0.26641212 113.81375801 18.29372237 156.42773438 54.00048828 C157.97223605 55.28933176 159.54068318 56.54930471 161.109375 57.80859375 C174.64415179 68.78079739 187.57328819 81.3295347 198 95.3125 C198.47179687 95.93495605 198.94359375 96.55741211 199.4296875 97.19873047 C217.66477421 121.33640588 231.86536958 147.42797877 241 176.3125 C241.35118896 177.38975342 241.35118896 177.38975342 241.70947266 178.48876953 C251.10217744 207.40330407 255.31549094 240.10406345 251 270.3125 C220.64 270.3125 190.28 270.3125 159 270.3125 C162.25207951 267.06042049 165.42944022 264.01073674 168.875 261 C179.68285107 251.26492822 189.66818591 239.16414895 191.34765625 224.21875 C191.69513965 216.59193479 190.76651411 210.44245884 186 204.3125 C176.80308025 195.90238897 165.76930175 195.89483524 154 195.3125 C154.05800781 194.1059375 154.11601563 192.899375 154.17578125 191.65625 C154.9056086 180.49499861 154.9056086 180.49499861 150.4296875 170.65625 C145.88656723 166.38621346 141.4313488 165.19174777 135.34469986 165.17827892 C133.93982893 165.17159216 133.93982893 165.17159216 132.50657678 165.16477031 C130.96807805 165.16504685 130.96807805 165.16504685 129.39849854 165.16532898 C127.76025073 165.15981395 127.76025073 165.15981395 126.088907 165.1541875 C122.41636297 165.14314346 118.74384722 165.1393056 115.07128906 165.13549805 C112.44331777 165.12923402 109.81534736 165.12258727 107.18737793 165.11558533 C99.29276255 165.09583682 91.39814592 165.08575742 83.50351202 165.07685754 C79.78474763 165.07247258 76.06598465 165.06710637 72.34722137 165.06186867 C59.98394695 165.04485911 47.6206734 165.03036469 35.25738907 165.02311993 C32.05017343 165.02121008 28.8429578 165.01928973 25.63574219 165.01733398 C24.83861792 165.01685024 24.04149365 165.0163665 23.2202141 165.0158681 C10.30570872 165.00756677 -2.60870407 164.98222691 -15.52316901 164.94975331 C-28.78516167 164.91667791 -42.04710727 164.89867079 -55.3091414 164.89547569 C-62.75412379 164.89331119 -70.19897109 164.88457129 -77.64391327 164.85901451 C-83.98383577 164.83730104 -90.32359035 164.82926027 -96.66354582 164.83898129 C-99.89704053 164.84352403 -103.13011673 164.83945662 -106.3635788 164.82221985 C-109.87286659 164.8045593 -113.38127591 164.81157941 -116.89056396 164.82475281 C-117.9073069 164.81378356 -118.92404983 164.80281432 -119.97160316 164.79151267 C-127.00703388 164.85526086 -132.62718876 166.15751615 -137.875 171.06640625 C-144.39654205 181.55069086 -140.47307816 194.93367407 -138 206.3125 C-132.48817674 229.74110156 -122.69575364 249.99929417 -110 270.3125 C-156.2 270.3125 -202.4 270.3125 -250 270.3125 C-250 225.48491379 -250 225.48491379 -247 208.3125 C-246.86078125 207.46171875 -246.7215625 206.6109375 -246.578125 205.734375 C-240.99825606 172.04849952 -227.18552056 139.47658557 -208 111.3125 C-207.61231445 110.73935059 -207.22462891 110.16620117 -206.82519531 109.57568359 C-200.4930893 100.27459258 -193.493206 91.6984327 -186 83.3125 C-185.49146484 82.74080078 -184.98292969 82.16910156 -184.45898438 81.58007812 C-166.22774777 61.17128594 -144.66074853 44.94099195 -121 31.3125 C-119.8759375 30.65507812 -118.751875 29.99765625 -117.59375 29.3203125 C-82.05101804 9.38756417 -40.55189989 -0.18344406 0 0 Z " fill="#352C27" transform="translate(575,333.6875)"/>
<path d="M0 0 C255.09 0 510.18 0 773 0 C773 3.96 773 7.92 773 12 C726.8 12 680.6 12 633 12 C635.475 19.425 635.475 19.425 638 27 C638.64982644 32.84843799 638.03346288 36.91161065 635 42 C628.8981341 46.97189073 622.22770379 47.13444478 614.69921875 47.17578125 C613.06574235 47.19898172 611.43227877 47.22309915 609.79882812 47.24804688 C607.24478577 47.28308746 604.69121598 47.31248044 602.13696289 47.32592773 C599.6571446 47.341509 597.1786752 47.38177482 594.69921875 47.42578125 C593.57068733 47.42291862 593.57068733 47.42291862 592.4193573 47.41999817 C586.89069276 47.54592316 582.63798023 48.95326621 578 52 C573.3043002 56.93650492 572.85606344 60.99585329 572.7890625 67.5625 C572.76095948 69.09766628 572.73229486 70.63282237 572.703125 72.16796875 C572.66216494 74.57242158 572.62525808 76.97669119 572.59863281 79.38134766 C572.32904753 101.81735054 572.32904753 101.81735054 566.5625 109.0625 C560.79008268 113.42701065 556.12001557 113.7208027 549 113 C544.58380561 111.96717486 540.34281481 110.55385447 536.0625 109.0625 C533.8661062 108.32356217 531.66950054 107.5852537 529.47265625 106.84765625 C528.51625244 106.51773682 527.55984863 106.18781738 526.57446289 105.84790039 C519.57536872 103.5427459 510.9807828 102.12919772 504.0625 105.375 C497.33273129 110.08420862 495.44441674 119.50411366 493.08544922 126.88330078 C491.32645135 132.27099111 489.24761816 137.48570393 487 142.6875 C486.67990967 143.45384766 486.35981934 144.22019531 486.0300293 145.00976562 C483.72183732 150.23304739 481.24148282 153.37925859 476 156 C464.94405289 157.38199339 455.63479684 148.87500705 447 143 C444.55208648 141.35877018 442.09180751 139.73766067 439.625 138.125 C439.05426758 137.74375977 438.48353516 137.36251953 437.89550781 136.96972656 C432.61050089 133.52782328 427.37715498 131.1071983 421 132 C410.04496654 136.4578924 402.77080682 148.1270827 396.0234375 157.265625 C390.86825887 164.23208261 386.61819764 169.95959303 377.625 171.625 C367.54141327 169.88645056 361.84524865 161.71847431 356 154 C355.14155775 152.88079437 354.28215902 151.76232181 353.421875 150.64453125 C352.12448605 148.95681177 350.82713717 147.26906456 349.53076172 145.58056641 C343.67125508 136.92209338 343.67125508 136.92209338 335 132 C324.15634305 130.74880881 315.45722715 138.14988799 307 144 C287.74410774 157.31986532 287.74410774 157.31986532 279 156 C272.22737263 152.88459141 269.4711747 146.9132566 266.9453125 140.19458008 C265.61145873 136.16723896 264.36492683 132.11625287 263.12695312 128.05859375 C259.25293526 115.25859402 259.25293526 115.25859402 250.8125 105.375 C243.37336609 101.73809009 236.77541105 102.7269874 229.0625 104.96875 C227.97594116 105.26839661 227.97594116 105.26839661 226.86743164 105.57409668 C224.57546681 106.20641819 222.28743329 106.8514909 220 107.5 C216.98230099 108.35554638 213.96124972 109.19737308 210.9375 110.03125 C210.26017822 110.22811401 209.58285645 110.42497803 208.88500977 110.62780762 C203.27391313 112.17308746 197.68021564 113.13164661 192.1875 110.8125 C186.85941973 106.39780492 185.94130083 100.70253276 185.18652344 94.14257812 C184.70359777 88.59525396 184.56389285 83.01487611 184.42919922 77.44970703 C184.18127275 69.14062862 183.73390277 60.10085416 179 53 C171.28215373 46.22335449 160.42436722 46.71602839 150.6875 46.5 C126.21622898 45.70545492 126.21622898 45.70545492 120 40 C116.01429656 32.02859312 120.40861044 19.42648462 122 12 C81.74 12 41.48 12 0 12 C0 8.04 0 4.08 0 0 Z " fill="#F1F0EF" transform="translate(198,731)"/>
<path d="M0 0 C128.04 0 256.08 0 388 0 C384.30682298 4.92423603 381.21784313 9.03614964 376.98828125 13.27734375 C376.06466797 14.20353516 375.14105469 15.12972656 374.18945312 16.08398438 C373.71515869 16.55408936 373.24086426 17.02419434 372.75219727 17.50854492 C371.32529535 18.92480012 369.90931789 20.35133705 368.49414062 21.77929688 C362.30754709 27.94874116 355.87716103 33.61332891 349 39 C348.34668701 39.51264404 347.69337402 40.02528809 347.02026367 40.5534668 C337.16619982 48.15761832 326.74863386 54.74292713 316 61 C315.38753418 61.3619043 314.77506836 61.72380859 314.14404297 62.09667969 C274.23291065 85.48167171 228.58335267 92.93528701 183 92 C181.82074951 91.98694824 181.82074951 91.98694824 180.61767578 91.97363281 C143.38071167 91.48905935 106.57980396 79.48613668 74 62 C73.41347656 61.68740234 72.82695312 61.37480469 72.22265625 61.05273438 C47.7634613 47.89706493 12.77183543 25.54367086 0 0 Z " fill="#352C27" transform="translate(382,743)"/>
<path d="M0 0 C0.91192108 0.00054382 1.82384216 0.00108765 2.76339722 0.00164795 C63.81948054 0.16784846 124.88349438 20.8104794 171.8125 60.375 C172.71871094 61.09816406 173.62492187 61.82132812 174.55859375 62.56640625 C189.68375519 74.87848034 204.14803543 88.87729733 215.59863281 104.70800781 C216.88115292 106.4692804 218.1987233 108.19996513 219.5234375 109.9296875 C247.88213849 147.27386502 264.84940527 191.15792418 271.8125 237.375 C272.00948486 238.68162598 272.00948486 238.68162598 272.21044922 240.01464844 C274.43588522 255.65200376 276.65669422 275.99822312 272.8125 291.375 C269.1825 291.375 265.5525 291.375 261.8125 291.375 C261.79268066 290.25754395 261.77286133 289.14008789 261.75244141 287.98876953 C261.67502932 283.75029963 261.58655114 279.5121144 261.49511719 275.27392578 C261.45737631 273.4569266 261.42244021 271.6398665 261.390625 269.82275391 C261.09845938 253.32452629 259.89936665 237.18887964 256.5625 221 C256.34779053 219.9469165 256.13308105 218.89383301 255.91186523 217.80883789 C253.80355978 207.800619 251.06024617 198.06893279 247.8125 188.375 C247.5954541 187.71338867 247.3784082 187.05177734 247.15478516 186.37011719 C238.72430049 161.03330317 225.5102216 136.21576531 208.8125 115.375 C207.81476563 114.09109375 207.81476563 114.09109375 206.796875 112.78125 C202.7598036 107.63159987 198.51471041 102.71691672 194.1015625 97.88671875 C192.55989771 96.1950968 191.03404556 94.48894349 189.5234375 92.76953125 C185.60823287 88.32288131 181.67269693 84.13806723 177.1328125 80.328125 C175.35081926 78.82813069 173.60148822 77.2892653 171.8671875 75.734375 C139.73338257 47.07527105 97.46284589 25.6894485 55.02246094 17.79589844 C53.45889163 17.49810861 51.89986192 17.17600373 50.34472656 16.83691406 C34.50040254 13.41407831 18.89419643 12.9981133 2.75 13 C1.74298035 12.99818726 0.73596069 12.99637451 -0.30157471 12.99450684 C-12.74574657 12.99704052 -24.86931718 13.60459896 -37.1875 15.375 C-38.04480713 15.48457031 -38.90211426 15.59414063 -39.78540039 15.70703125 C-99.90702149 23.45840867 -161.3804052 58.66177716 -198.95703125 106.4609375 C-199.69308594 107.42257812 -200.42914063 108.38421875 -201.1875 109.375 C-201.63657715 109.94766602 -202.0856543 110.52033203 -202.54833984 111.11035156 C-227.64909888 143.12072895 -244.80529522 180.21711329 -252.9375 220.0625 C-253.23575684 221.52115479 -253.23575684 221.52115479 -253.54003906 223.00927734 C-256.66325034 239.13694036 -257.5416012 255.04953366 -257.8125 271.4375 C-257.85080603 273.38347858 -257.88986436 275.3294425 -257.9296875 277.27539062 C-258.02426543 281.97513725 -258.10877669 286.67496218 -258.1875 291.375 C-262.1475 291.375 -266.1075 291.375 -270.1875 291.375 C-270.60897236 268.725724 -270.94868835 246.55312707 -266.72119141 224.20117188 C-266.24417916 221.67514547 -265.82210832 219.14782594 -265.41796875 216.609375 C-258.40588412 175.74430527 -238.46284102 136.80119373 -213.1875 104.375 C-212.50429688 103.49714844 -211.82109375 102.61929688 -211.1171875 101.71484375 C-201.29044461 89.40421936 -190.26516546 76.86969535 -177.9375 67 C-173.81516837 63.69504116 -173.81516837 63.69504116 -169.7734375 60.29296875 C-123.42071538 20.63563983 -60.51735667 -0.13696248 0 0 Z " fill="#352C28" transform="translate(574.1875,312.625)"/>
<path d="M0 0 C5.23324917 -0.68259772 9.81562697 -0.90570372 15 0 C18.90870737 3.02036479 21.23498531 6.94915679 24 11 C25.90292306 13.26056463 27.91003504 15.41361659 29.9375 17.5625 C30.44877441 18.110271 30.96004883 18.65804199 31.48681641 19.22241211 C39.52231247 27.80305543 47.74521798 35.7310619 57 43 C57.98613281 43.79148437 58.97226562 44.58296875 59.98828125 45.3984375 C105.16850607 81.06999732 160.90655808 100.19055015 218.32373047 100.18530273 C220.96729036 100.18747314 223.6104206 100.20564642 226.25390625 100.22460938 C242.89751417 100.28143993 259.28092572 99.03519474 275.5625 95.4375 C276.73232422 95.18137939 277.90214844 94.92525879 279.10742188 94.66137695 C313.00372275 86.91579079 344.9587223 72.55654734 373 52 C373.57830566 51.5786377 374.15661133 51.15727539 374.75244141 50.72314453 C382.00982308 45.39912435 388.74504433 39.66835393 395.30078125 33.51171875 C397.48804586 31.47639148 399.70817803 29.53878948 402 27.625 C405.54616245 24.54330373 408.74479115 21.18948828 411.9375 17.75 C412.45642822 17.19497803 412.97535645 16.63995605 413.51000977 16.06811523 C415.97092119 13.39048571 418.26170592 10.72128612 420.3125 7.71484375 C425.52333888 0.2913141 425.52333888 0.2913141 430.4453125 -0.6796875 C433.70740573 -0.68673306 436.77819512 -0.49298096 440 0 C430.84493613 19.61799401 409.66234787 37.90815525 393 51 C391.82050781 52.01513672 391.82050781 52.01513672 390.6171875 53.05078125 C376.85495483 64.85006224 361.0740446 74.66902773 345 83 C344.19498047 83.42345703 343.38996094 83.84691406 342.56054688 84.28320312 C301.16180117 105.83535913 256.31277166 113.99732295 210 113 C208.64165039 112.98477295 208.64165039 112.98477295 207.25585938 112.96923828 C149.28035721 112.29592866 91.18692886 87.78941611 47 51 C46.21955322 50.35490479 46.21955322 50.35490479 45.42333984 49.69677734 C32.71017335 39.15441978 21.246156 27.98096181 11 15 C8.62024514 12.13305123 6.23584305 9.27008366 3.84765625 6.41015625 C2.24325776 4.31731509 1.06386839 2.40066637 0 0 Z " fill="#342C28" transform="translate(355,743)"/>
<path d="M0 0 C5.35447496 4.52919809 9.39767284 10.28079116 10.30029297 17.3527832 C10.43897919 19.99315552 10.46734415 22.60618733 10.4375 25.25 C10.42992676 26.18150879 10.42235352 27.11301758 10.41455078 28.07275391 C10.19532856 37.23048202 8.50966445 45.69043455 1.93359375 52.49609375 C-6.65038183 59.1725192 -16.46189756 60.2159349 -27 59 C-33.7657293 57.54762344 -38.06292217 54.61191412 -42.52734375 49.390625 C-46.54632349 42.86644568 -47.52808581 36.77206859 -47.4375 29.1875 C-47.43065186 28.30819824 -47.42380371 27.42889648 -47.41674805 26.52294922 C-47.21510245 18.34384125 -45.65948191 11.35691932 -40.8125 4.625 C-29.83954412 -5.61642549 -13.16110345 -7.61509551 0 0 Z " fill="#FAFAF8" transform="translate(639,648)"/>
<path d="M0 0 C11.05194242 2.9084059 20.39140273 10.10818595 26.60546875 19.5234375 C31.83040852 28.80246219 32.32536685 37.98972627 30.37890625 48.28515625 C27.38592324 58.3814856 21.21242224 66.47863159 14.4375 74.375 C6.36038144 84.17691992 1.62503847 93.61148845 2.515625 106.3671875 C3.71081852 115.33113888 8.30119432 121.20722716 14 128 C14.515625 128.62648438 15.03125 129.25296875 15.5625 129.8984375 C16.69877046 131.273583 17.84773324 132.63823019 19 134 C6.19627895 131.13959423 -4.08147262 123.34415448 -11.1875 112.375 C-18.27630514 99.69877204 -20.13159425 85.7178475 -17.3046875 71.50390625 C-13.93500533 60.61615169 -7.87524775 51.67773783 -0.98828125 42.73046875 C5.07719171 34.40087032 5.87046146 25.06757399 5 15 C4.18065028 11.99447624 3.17686338 9.21008656 1.97265625 6.33984375 C1.095477 4.22968163 0.48866562 2.22728646 0 0 Z " fill="#F1F1F0" transform="translate(578,360)"/>
<path d="M0 0 C1.75280273 -0.0309375 1.75280273 -0.0309375 3.54101562 -0.0625 C11.16542422 -0.09690229 17.01218513 0.36033544 23.53125 4.6171875 C27.12272622 8.46804812 27.88241816 11.54810763 28.0625 16.8125 C27.80413808 22.05183944 27.1512238 25.33553438 23.4375 29.25 C20.6875 31.625 20.6875 31.625 18.4375 33.25 C19.7059375 34.7040625 19.7059375 34.7040625 21 36.1875 C24.25302222 40.4989218 26.31430472 45.10690656 28.375 50.0625 C28.693479 50.81587646 29.01195801 51.56925293 29.34008789 52.34545898 C31.56360744 57.87167768 31.56360744 57.87167768 30.4375 61.25 C28.64591511 61.27696365 26.85421527 61.29637917 25.0625 61.3125 C24.06476562 61.32410156 23.06703125 61.33570313 22.0390625 61.34765625 C19.4375 61.25 19.4375 61.25 17.4375 60.25 C16.53955078 58.34814453 16.53955078 58.34814453 15.6328125 55.8828125 C15.29636719 54.99722656 14.95992187 54.11164062 14.61328125 53.19921875 C13.91626182 51.3258171 13.22350626 49.45082316 12.53515625 47.57421875 C12.19613281 46.68605469 11.85710938 45.79789063 11.5078125 44.8828125 C11.20633301 44.06699707 10.90485352 43.25118164 10.59423828 42.41064453 C9.21805735 39.84010817 7.93218114 38.7354666 5.4375 37.25 C1.78475531 36.52518916 1.78475531 36.52518916 -1.5625 36.25 C-1.55726318 36.97179443 -1.55202637 37.69358887 -1.54663086 38.43725586 C-1.52592642 41.68732849 -1.51286082 44.93738728 -1.5 48.1875 C-1.49162109 49.32380859 -1.48324219 50.46011719 -1.47460938 51.63085938 C-1.47138672 52.71044922 -1.46816406 53.79003906 -1.46484375 54.90234375 C-1.45960693 55.90257568 -1.45437012 56.90280762 -1.44897461 57.93334961 C-1.5625 60.25 -1.5625 60.25 -2.5625 61.25 C-4.22679051 61.34823937 -5.89531931 61.37973631 -7.5625 61.375 C-8.92375 61.37886719 -8.92375 61.37886719 -10.3125 61.3828125 C-12.5625 61.25 -12.5625 61.25 -13.5625 60.25 C-13.66155152 58.41427369 -13.69049207 56.57472425 -13.69189453 54.73632812 C-13.69504669 53.55840698 -13.69819885 52.38048584 -13.70144653 51.16687012 C-13.6994223 49.88461548 -13.69739807 48.60236084 -13.6953125 47.28125 C-13.69626923 45.97546997 -13.69722595 44.66968994 -13.69821167 43.32434082 C-13.69968833 40.55687278 -13.69753511 37.78943696 -13.69287109 35.02197266 C-13.68717381 31.46737351 -13.69045298 27.91284986 -13.69644356 24.35825348 C-13.70091747 20.97841286 -13.69778886 17.59859277 -13.6953125 14.21875 C-13.69733673 12.93649536 -13.69936096 11.65424072 -13.70144653 10.33312988 C-13.69829437 9.15520874 -13.69514221 7.9772876 -13.69189453 6.76367188 C-13.69109894 5.72078003 -13.69030334 4.67788818 -13.68948364 3.60339355 C-13.37201842 -2.28020361 -4.47428703 0.01929612 0 0 Z " fill="#FBFBF9" transform="translate(554.5625,644.75)"/>
<path d="M0 0 C1.2375 0.01289062 2.475 0.02578125 3.75 0.0390625 C5.60625 0.01972656 5.60625 0.01972656 7.5 0 C10.75 0.6640625 10.75 0.6640625 12.33154297 2.89038086 C13.65179723 5.47203467 14.72522844 7.97696691 15.6953125 10.70703125 C16.2214917 12.1760791 16.2214917 12.1760791 16.75830078 13.67480469 C17.12681152 14.72313477 17.49532227 15.77146484 17.875 16.8515625 C18.45290283 18.48399902 18.45290283 18.48399902 19.04248047 20.14941406 C19.85876523 22.45930518 20.67266766 24.77003935 21.484375 27.08154297 C22.76288594 30.70053785 24.06692392 34.3095669 25.375 37.91796875 C26.20900839 40.24975866 27.04236154 42.58178306 27.875 44.9140625 C28.27734863 46.01387451 28.67969727 47.11368652 29.09423828 48.24682617 C29.45759277 49.27654541 29.82094727 50.30626465 30.1953125 51.3671875 C30.68281982 52.72312012 30.68281982 52.72312012 31.18017578 54.10644531 C31.75 56.6640625 31.75 56.6640625 30.75 61.6640625 C27.12 61.6640625 23.49 61.6640625 19.75 61.6640625 C15.875 52.0390625 15.875 52.0390625 14.75 48.6640625 C7.16 48.6640625 -0.43 48.6640625 -8.25 48.6640625 C-8.889375 50.6234375 -9.52875 52.5828125 -10.1875 54.6015625 C-12.125 60.5390625 -12.125 60.5390625 -13.25 61.6640625 C-14.93608966 61.73611761 -16.62500659 61.74792318 -18.3125 61.7265625 C-19.23160156 61.71753906 -20.15070312 61.70851563 -21.09765625 61.69921875 C-21.80792969 61.68761719 -22.51820313 61.67601562 -23.25 61.6640625 C-24.5070715 58.10765215 -23.98268625 56.03499697 -22.75878906 52.51586914 C-22.40802307 51.49123062 -22.05725708 50.4665921 -21.69586182 49.41090393 C-21.30638367 48.30979782 -20.91690552 47.20869171 -20.515625 46.07421875 C-20.12179626 44.93754257 -19.72796753 43.80086639 -19.32220459 42.62974548 C-18.48645416 40.22479161 -17.64551268 37.82163638 -16.79980469 35.42016602 C-15.50772647 31.7485185 -14.23304206 28.07118722 -12.9609375 24.39257812 C-12.14685873 22.05693402 -11.33178712 19.72163567 -10.515625 17.38671875 C-10.13424377 16.28763687 -9.75286255 15.18855499 -9.35992432 14.0561676 C-8.99654968 13.02837692 -8.63317505 12.00058624 -8.25878906 10.94165039 C-7.94266663 10.04104385 -7.62654419 9.14043732 -7.30084229 8.21253967 C-4.27462046 0.87342005 -4.27462046 0.87342005 0 0 Z " fill="#F9FAF8" transform="translate(728.25,644.3359375)"/>
<path d="M0 0 C3.15234375 -0.46875 3.15234375 -0.46875 6.9375 -0.5 C8.18402344 -0.5309375 9.43054688 -0.561875 10.71484375 -0.59375 C14 0 14 0 15.58374023 2.20605469 C16.93877114 4.87920995 17.99055736 7.45841376 18.9453125 10.296875 C19.4714917 11.84145386 19.4714917 11.84145386 20.00830078 13.41723633 C20.37681152 14.51704834 20.74532227 15.61686035 21.125 16.75 C23.54508049 23.89738536 25.98525203 31.02788481 28.625 38.09765625 C29.25317627 39.78906738 29.25317627 39.78906738 29.89404297 41.51464844 C30.70098752 43.67653003 31.51739925 45.8349067 32.34423828 47.98925781 C32.70759277 48.96862305 33.07094727 49.94798828 33.4453125 50.95703125 C33.77031738 51.81272705 34.09532227 52.66842285 34.43017578 53.55004883 C35 56 35 56 34 61 C30.37 61 26.74 61 23 61 C19.125 51.375 19.125 51.375 18 48 C10.41 48 2.82 48 -5 48 C-5.639375 49.959375 -6.27875 51.91875 -6.9375 53.9375 C-8.875 59.875 -8.875 59.875 -10 61 C-11.68608966 61.07205511 -13.37500659 61.08386068 -15.0625 61.0625 C-15.98160156 61.05347656 -16.90070313 61.04445313 -17.84765625 61.03515625 C-18.55792969 61.02355469 -19.26820313 61.01195312 -20 61 C-21.10001035 57.71527262 -20.90770126 55.90230762 -19.734375 52.66796875 C-19.4264502 51.80139648 -19.11852539 50.93482422 -18.80126953 50.04199219 C-18.45435059 49.10000977 -18.10743164 48.15802734 -17.75 47.1875 C-17.01300177 45.13412143 -16.27602376 43.08073559 -15.5390625 41.02734375 C-15.13461914 39.91214355 -14.73017578 38.79694336 -14.31347656 37.64794922 C-12.8812738 33.67025896 -11.48077214 29.6823069 -10.0859375 25.69140625 C-9.34408761 23.57516597 -8.60168035 21.45912223 -7.85900879 19.34317017 C-7.37067114 17.9505795 -6.88328094 16.55765622 -6.39685059 15.16439819 C-5.70878596 13.19666389 -5.01524184 11.2309437 -4.3203125 9.265625 C-3.92086426 8.12899414 -3.52141602 6.99236328 -3.10986328 5.82128906 C-2 3 -2 3 0 0 Z " fill="#FAFBF9" transform="translate(385,645)"/>
<path d="M0 0 C1.43352212 0.00015908 2.86704998 0.00585132 4.30053711 0.01586914 C5.43041298 0.01799156 5.43041298 0.01799156 6.58311462 0.02015686 C8.99807646 0.02577163 11.41294687 0.03832656 13.82788086 0.05102539 C15.46134307 0.05603849 17.09480672 0.06060173 18.72827148 0.06469727 C22.74067671 0.07574585 26.75301326 0.09302033 30.76538086 0.11352539 C30.76538086 3.41352539 30.76538086 6.71352539 30.76538086 10.11352539 C23.17538086 10.11352539 15.58538086 10.11352539 7.76538086 10.11352539 C7.76538086 15.06352539 7.76538086 20.01352539 7.76538086 25.11352539 C9.1253418 25.10192383 10.48530273 25.09032227 11.88647461 25.07836914 C13.65860866 25.06899277 15.43074419 25.05989241 17.20288086 25.05102539 C18.54962891 25.03845703 18.54962891 25.03845703 19.92358398 25.02563477 C20.77758789 25.02241211 21.6315918 25.01918945 22.51147461 25.01586914 C23.69761353 25.00801392 23.69761353 25.00801392 24.90771484 25 C26.76538086 25.11352539 26.76538086 25.11352539 27.76538086 26.11352539 C27.89038086 29.61352539 27.89038086 29.61352539 27.76538086 33.11352539 C26.76538086 34.11352539 26.76538086 34.11352539 24.90771484 34.22705078 C24.11695557 34.22181396 23.32619629 34.21657715 22.51147461 34.21118164 C21.6574707 34.20795898 20.8034668 34.20473633 19.92358398 34.20141602 C19.02575195 34.19303711 18.12791992 34.1846582 17.20288086 34.17602539 C16.30118164 34.17151367 15.39948242 34.16700195 14.47045898 34.16235352 C12.23540496 34.15052783 10.00038484 34.13259178 7.76538086 34.11352539 C7.76538086 39.72352539 7.76538086 45.33352539 7.76538086 51.11352539 C15.35538086 51.11352539 22.94538086 51.11352539 30.76538086 51.11352539 C32.13490759 53.85257885 31.89159447 56.08439871 31.76538086 59.11352539 C31.27038086 60.10352539 31.27038086 60.10352539 30.76538086 61.11352539 C25.94157284 61.13817729 21.11780119 61.15636232 16.29394531 61.16845703 C14.65168621 61.17349713 13.00943163 61.18032917 11.3671875 61.18896484 C9.01162607 61.20104465 6.65612377 61.20675678 4.30053711 61.21118164 C3.5619899 61.21634293 2.82344269 61.22150421 2.06251526 61.2268219 C0.29639998 61.22701789 -1.4695906 61.17547258 -3.23461914 61.11352539 C-4.97761302 59.37053151 -4.36220596 56.96946287 -4.36401367 54.59985352 C-4.36716583 53.42193237 -4.37031799 52.24401123 -4.37356567 51.03039551 C-4.37154144 49.74814087 -4.36951721 48.46588623 -4.36743164 47.14477539 C-4.36838837 45.83899536 -4.36934509 44.53321533 -4.37033081 43.18786621 C-4.37180747 40.42039817 -4.36965425 37.65296235 -4.36499023 34.88549805 C-4.35929295 31.3308989 -4.36257212 27.77637525 -4.3685627 24.22177887 C-4.37303661 20.84193825 -4.369908 17.46211816 -4.36743164 14.08227539 C-4.36945587 12.80002075 -4.3714801 11.51776611 -4.37356567 10.19665527 C-4.37041351 9.01873413 -4.36726135 7.84081299 -4.36401367 6.62719727 C-4.36321808 5.58430542 -4.36242249 4.54141357 -4.36160278 3.46691895 C-4.16395334 -0.196127 -3.76942532 0.13229548 0 0 Z " fill="#FDFDFB" transform="translate(476.234619140625,644.886474609375)"/>
<path d="M0 0 C3.43773234 1.75023234 3.43773234 1.75023234 4.75 3.0625 C4.82205511 4.74858966 4.83386068 6.43750659 4.8125 8.125 C4.80347656 9.04410156 4.79445313 9.96320312 4.78515625 10.91015625 C4.77355469 11.62042969 4.76195312 12.33070313 4.75 13.0625 C2.05610005 12.46060912 0.08987051 11.73890711 -2.4375 10.5 C-6.69131767 8.65607045 -10.6787098 8.32143474 -15.25 9.0625 C-20.20796054 11.44966618 -22.27443583 13.96762399 -24.25 19.0625 C-26.26048466 27.40176382 -26.58684196 36.53040962 -22.5 44.25 C-20.4044783 47.28850646 -18.65289057 48.61312068 -15.25 50.0625 C-8.97319245 51.06299785 -4.32495593 50.17786934 1.05859375 46.83984375 C2.75 46.0625 2.75 46.0625 5.75 47.0625 C5.98798791 49.91835493 6.1684873 52.26185422 5.75 55.0625 C1.68905584 59.73873873 -3.36082799 60.8161365 -9.2734375 61.3203125 C-18.39276924 61.63917025 -24.05093975 59.83546431 -31.5625 54.875 C-39.36351654 46.71114548 -39.70928425 36.10575704 -39.53125 25.37890625 C-39.16923388 17.09778761 -36.32935213 9.73656199 -30.25 4.0625 C-20.92791404 -1.97137222 -10.65055328 -4.72596898 0 0 Z " fill="#F9FAF7" transform="translate(355.25,645.9375)"/>
<path d="M0 0 C6.81910855 2.06639653 11.40587156 6.53898565 14.875 12.625 C18.36876673 19.21919549 19.069977 25.68003938 17.26953125 32.94921875 C14.69576162 40.50327907 10.86970447 46.45484027 5.92260742 52.62353516 C0.23741702 59.81955176 -2.07144881 66.81195954 -1 76 C0.41073683 81.97102566 3.60719614 86.95773023 7 92 C0.02680792 90.05399291 -3.85374891 86.77842589 -7.6875 80.6875 C-8.26886719 79.78386719 -8.85023438 78.88023437 -9.44921875 77.94921875 C-14.33219179 68.6629602 -14.68293015 56.64156361 -12.125 46.546875 C-9.67918157 40.40014711 -6.19892755 34.96908886 -2.58203125 29.453125 C2.75353861 21.17969816 2.86924934 13.88262075 1 4.375 C0.676436 2.91446806 0.34677029 1.45519675 0 0 Z " fill="#F1F0EF" transform="translate(545,372)"/>
<path d="M0 0 C2.52659063 2.28208186 2.93420241 3.64907954 3.5625 7 C3.03112802 17.33961303 -5.03082437 26.12695093 -12 33 C-12.60328125 33.61359375 -13.2065625 34.2271875 -13.828125 34.859375 C-21.96321288 42.57002351 -34.06044206 50.2823835 -45 53 C-45.66 52.67 -46.32 52.34 -47 52 C-46.46632813 51.23300781 -45.93265625 50.46601562 -45.3828125 49.67578125 C-35.97042395 35.79769211 -28.53079085 20.67298985 -23.97583008 4.50878906 C-22.45759414 -0.63314414 -22.45759414 -0.63314414 -20.16796875 -2.46875 C-13.13812819 -4.1913776 -6.24168976 -3.64098569 0 0 Z " fill="#352D28" transform="translate(746,549)"/>
<path d="M0 0 C9.43965318 -1.19028902 9.43965318 -1.19028902 12.59765625 1.21875 C14.01433621 3.40860105 14.9902853 5.58992687 16 8 C16.61340241 9.36570129 17.22951926 10.73018512 17.84765625 12.09375 C19.61886569 16.04071524 21.32100773 20.01299819 23 24 C23.36351562 23.27296875 23.72703125 22.5459375 24.1015625 21.796875 C27.734375 14.53125 31.3671875 7.265625 35 0 C38.63 0 42.26 0 46 0 C47.07339647 4.29358587 47.04329722 4.65904764 45.15625 8.30859375 C44.73722412 9.13077393 44.31819824 9.9529541 43.88647461 10.80004883 C43.20016968 12.10558716 43.20016968 12.10558716 42.5 13.4375 C42.04310791 14.34201904 41.58621582 15.24653809 41.11547852 16.1784668 C39.15845843 20.02218461 37.20313987 23.80717911 34.80859375 27.3984375 C28.63400595 37.01481015 28.99408741 46.87491828 29.09423828 57.98144531 C29 60 29 60 28 61 C26.33570949 61.09823937 24.66718069 61.12973631 23 61.125 C21.63875 61.12886719 21.63875 61.12886719 20.25 61.1328125 C18 61 18 61 17 60 C17.0007575 58.59427053 17.05905579 57.18851735 17.140625 55.78515625 C17.65187683 37.62029745 11.139206 24.06999904 1.65478516 8.83984375 C-1.04726021 4.46078701 -1.04726021 4.46078701 -0.75 1.5625 C-0.5025 1.046875 -0.255 0.53125 0 0 Z " fill="#F9FAF8" transform="translate(655,645)"/>
<path d="M0 0 C1.0374939 0.00303635 1.0374939 0.00303635 2.09594727 0.00613403 C2.80243408 0.00517731 3.5089209 0.00422058 4.23681641 0.00323486 C5.7331552 0.00255321 7.22949694 0.00440649 8.72583008 0.00857544 C11.02374884 0.01392396 13.32147213 0.00863003 15.61938477 0.00222778 C17.06990603 0.00288857 18.52042718 0.00416974 19.97094727 0.00613403 C20.66260986 0.0041098 21.35427246 0.00208557 22.06689453 0 C26.91849503 0.0239943 26.91849503 0.0239943 28.03344727 1.13894653 C28.16625977 2.95144653 28.16625977 2.95144653 28.15844727 5.13894653 C28.16231445 6.22175903 28.16231445 6.22175903 28.16625977 7.32644653 C28.03344727 9.13894653 28.03344727 9.13894653 27.03344727 10.13894653 C25.47171982 10.22580256 23.90615382 10.24596873 22.34204102 10.23660278 C21.39780273 10.23338013 20.45356445 10.23015747 19.48071289 10.22683716 C18.48749023 10.21845825 17.49426758 10.21007935 16.47094727 10.20144653 C15.47385742 10.19693481 14.47676758 10.1924231 13.44946289 10.18777466 C10.9774324 10.17594676 8.50543254 10.15801069 6.03344727 10.13894653 C6.03344727 15.41894653 6.03344727 20.69894653 6.03344727 26.13894653 C7.4655957 26.12734497 8.89774414 26.11574341 10.37329102 26.10379028 C12.23917514 26.09441398 14.10506066 26.08531361 15.97094727 26.07644653 C16.91647461 26.06806763 17.86200195 26.05968872 18.83618164 26.05105591 C20.18486328 26.04622192 20.18486328 26.04622192 21.56079102 26.04129028 C22.80977173 26.03343506 22.80977173 26.03343506 24.08398438 26.02542114 C26.03344727 26.13894653 26.03344727 26.13894653 27.03344727 27.13894653 C27.2707354 33.66437026 27.2707354 33.66437026 26.03344727 36.13894653 C19.43344727 36.13894653 12.83344727 36.13894653 6.03344727 36.13894653 C6.04504883 37.85984497 6.05665039 39.58074341 6.06860352 41.35379028 C6.0779796 43.59467462 6.08707999 45.83556012 6.09594727 48.07644653 C6.10432617 49.21275513 6.11270508 50.34906372 6.12133789 51.51980591 C6.12456055 52.59939575 6.1277832 53.6789856 6.13110352 54.79129028 C6.13634033 55.79152222 6.14157715 56.79175415 6.14697266 57.82229614 C6.03344727 60.13894653 6.03344727 60.13894653 5.03344727 61.13894653 C3.36915675 61.2371859 1.70062796 61.26868284 0.03344727 61.26394653 C-1.32780273 61.26781372 -1.32780273 61.26781372 -2.71655273 61.27175903 C-4.96655273 61.13894653 -4.96655273 61.13894653 -5.96655273 60.13894653 C-6.06560426 58.30322023 -6.0945448 56.46367078 -6.09594727 54.62527466 C-6.09909943 53.44735352 -6.10225159 52.26943237 -6.10549927 51.05581665 C-6.10347504 49.77356201 -6.10145081 48.49130737 -6.09936523 47.17019653 C-6.10032196 45.8644165 -6.10127869 44.55863647 -6.1022644 43.21328735 C-6.10374107 40.44581931 -6.10158785 37.67838349 -6.09692383 34.91091919 C-6.09122654 31.35632004 -6.09450572 27.80179639 -6.10049629 24.24720001 C-6.1049702 20.8673594 -6.1018416 17.4875393 -6.09936523 14.10769653 C-6.10138947 12.82544189 -6.1034137 11.54318726 -6.10549927 10.22207642 C-6.10234711 9.04415527 -6.09919495 7.86623413 -6.09594727 6.65261841 C-6.09515167 5.60972656 -6.09435608 4.56683472 -6.09353638 3.49234009 C-5.86170669 -0.80416988 -3.79599033 0.01877362 0 0 Z " fill="#FDFCFA" transform="translate(433.966552734375,644.8610534667969)"/>
<path d="M0 0 C5.11779619 2.36935009 7.92134064 5.81865387 10 11 C10.5247587 14.18787428 10.51643857 17.27625055 10.4375 20.5 C10.44458984 21.31597656 10.45167969 22.13195312 10.45898438 22.97265625 C10.39226117 29.36781847 9.27256728 34.28758099 5.0625 39.3125 C0.65281569 42.92042352 -2.93040293 43.45294522 -8.53125 43.3046875 C-12.32784955 42.83611983 -14.24273509 41.62596658 -17 39 C-20.69952351 33.44545398 -21.61037423 28.51229746 -21.4375 21.9375 C-21.44458984 21.17373047 -21.45167969 20.40996094 -21.45898438 19.62304688 C-21.39403834 13.78289944 -20.45617824 8.78741856 -16.46484375 4.2578125 C-10.73933603 0.01127224 -7.09317681 -0.76388058 0 0 Z " fill="#382F2A" transform="translate(626,654)"/>
<path d="M0 0 C0.9075 0.00257813 1.815 0.00515625 2.75 0.0078125 C4.11125 0.00394531 4.11125 0.00394531 5.5 0 C7.75 0.1328125 7.75 0.1328125 8.75 1.1328125 C8.84326716 2.69828298 8.86745582 4.26794022 8.86352539 5.83618164 C8.86344986 6.83714371 8.86337433 7.83810577 8.86329651 8.86940002 C8.85813522 9.9579277 8.85297394 11.04645538 8.84765625 12.16796875 C8.8462413 13.27635605 8.84482635 14.38474335 8.84336853 15.52671814 C8.83775033 19.08294319 8.82519475 22.63910633 8.8125 26.1953125 C8.80748734 28.59960847 8.80292403 31.00390542 8.79882812 33.40820312 C8.78777499 39.31642754 8.77101917 45.2246156 8.75 51.1328125 C9.35062256 51.12757568 9.95124512 51.12233887 10.57006836 51.11694336 C13.27586838 51.09623236 15.98165177 51.08317125 18.6875 51.0703125 C19.63302734 51.06193359 20.57855469 51.05355469 21.55273438 51.04492188 C22.90141602 51.04008789 22.90141602 51.04008789 24.27734375 51.03515625 C25.10999756 51.02991943 25.94265137 51.02468262 26.80053711 51.01928711 C28.75 51.1328125 28.75 51.1328125 29.75 52.1328125 C29.8828125 53.9453125 29.8828125 53.9453125 29.875 56.1328125 C29.87886719 57.215625 29.87886719 57.215625 29.8828125 58.3203125 C29.75 60.1328125 29.75 60.1328125 28.75 61.1328125 C26.47052208 61.2330218 24.18792865 61.26362553 21.90625 61.265625 C21.22195923 61.26658173 20.53766846 61.26753845 19.8326416 61.26852417 C18.38338123 61.2692058 16.93411782 61.26735273 15.48486328 61.26318359 C13.25937072 61.25783502 11.03407999 61.2631291 8.80859375 61.26953125 C7.40364539 61.26887047 5.99869715 61.2675893 4.59375 61.265625 C3.30662109 61.26449707 2.01949219 61.26336914 0.69335938 61.26220703 C-2.25 61.1328125 -2.25 61.1328125 -3.25 60.1328125 C-3.34905152 58.29708619 -3.37799207 56.45753675 -3.37939453 54.61914062 C-3.38254669 53.44121948 -3.38569885 52.26329834 -3.38894653 51.04968262 C-3.3869223 49.76742798 -3.38489807 48.48517334 -3.3828125 47.1640625 C-3.38376923 45.85828247 -3.38472595 44.55250244 -3.38571167 43.20715332 C-3.38718833 40.43968528 -3.38503511 37.67224946 -3.38037109 34.90478516 C-3.37467381 31.35018601 -3.37795298 27.79566236 -3.38394356 24.24106598 C-3.38841747 20.86122536 -3.38528886 17.48140527 -3.3828125 14.1015625 C-3.38483673 12.81930786 -3.38686096 11.53705322 -3.38894653 10.21594238 C-3.38579437 9.03802124 -3.38264221 7.8601001 -3.37939453 6.64648438 C-3.37859894 5.60359253 -3.37780334 4.56070068 -3.37698364 3.48620605 C-3.20923025 0.37722485 -3.10267941 0.18314427 0 0 Z " fill="#FDFDFB" transform="translate(771.25,644.8671875)"/>
<path d="M0 0 C2.48701214 2.48701214 2.40882022 3.48218376 2.5625 6.9375 C2.46029629 14.0267207 -0.93209439 18.4425615 -5 24 C-8.69939985 29.26658077 -9.97539997 33.62065997 -9 40 C-8.19404803 42.5099647 -7.20526329 44.63969272 -6 47 C-11.25028862 44.77872405 -15.82400807 41.35014529 -18 36 C-19.27792795 29.68408687 -17.58170229 25.28737305 -14.1328125 20.0390625 C-13.07707031 18.53472656 -13.07707031 18.53472656 -12 17 C-11.51756836 16.30616211 -11.03513672 15.61232422 -10.53808594 14.89746094 C-7.06361321 9.90409303 -3.547498 4.94171119 0 0 Z " fill="#F2F1EF" transform="translate(615,430)"/>
<path d="M0 0 C11.31713555 -0.30179028 11.31713555 -0.30179028 15 2 C17.15157887 4.54277503 17.13394492 6.79735246 16.9375 10 C16.43871728 12.93788503 15.97291413 14.0361145 14.125 16.5 C9.35773022 18.78828949 5.25371685 18.25319117 0 18 C0 12.06 0 6.12 0 0 Z " fill="#39322E" transform="translate(553,654)"/>
<path d="M0 0 C2.24487536 2.24487536 2.73391254 3.69913932 3.7265625 6.68359375 C4.0359375 7.61107422 4.3453125 8.53855469 4.6640625 9.49414062 C4.98117187 10.46544922 5.29828125 11.43675781 5.625 12.4375 C5.94984375 13.40494141 6.2746875 14.37238281 6.609375 15.36914062 C9 22.6063058 9 22.6063058 9 26 C3.39 26 -2.22 26 -8 26 C-6.36231563 16.99273599 -3.13020303 8.57360642 0 0 Z " fill="#3B322E" transform="translate(391,657)"/>
<path d="M0 0 C2.24487536 2.24487536 2.73391254 3.69913932 3.7265625 6.68359375 C4.0359375 7.61107422 4.3453125 8.53855469 4.6640625 9.49414062 C4.98117187 10.46544922 5.29828125 11.43675781 5.625 12.4375 C5.94984375 13.40494141 6.2746875 14.37238281 6.609375 15.36914062 C9 22.6063058 9 22.6063058 9 26 C3.39 26 -2.22 26 -8 26 C-6.36231563 16.99273599 -3.13020303 8.57360642 0 0 Z " fill="#3E332D" transform="translate(731,657)"/>
<path d="M0 0 C6.55414683 8.45162095 8.75376209 15.45324597 8.3125 26.125 C8.27866211 27.7028125 8.27866211 27.7028125 8.24414062 29.3125 C8.18586671 31.87655243 8.10412878 34.43747076 8 37 C7.34 36.67 6.68 36.34 6 36 C5.97494385 35.35450195 5.9498877 34.70900391 5.92407227 34.04394531 C5.80785567 31.11244106 5.68524558 28.18123783 5.5625 25.25 C5.52318359 24.23421875 5.48386719 23.2184375 5.44335938 22.171875 C5.40146484 21.1921875 5.35957031 20.2125 5.31640625 19.203125 C5.27974854 18.30239258 5.24309082 17.40166016 5.20532227 16.47363281 C5.0128931 14.15533043 4.83532644 12.17337584 4 10 C3.01 9.67 2.02 9.34 1 9 C0.67 6.03 0.34 3.06 0 0 Z " fill="#3A4156" transform="translate(664,668)"/>
<path d="M0 0 C0.33 0 0.66 0 1 0 C1.08636719 1.11117187 1.17273438 2.22234375 1.26171875 3.3671875 C2.19399471 13.73176553 4.16006992 21.24010488 10 30 C6.62670085 28.60415208 4.95767338 27.07634389 3 24 C2.67 23.01 2.34 22.02 2 21 C1.34 20.67 0.68 20.34 0 20 C-1.23525794 13.28664163 -1.15923935 6.69782737 0 0 Z " fill="#3B4453" transform="translate(315,672)"/>
<path d="M0 0 C0.99 0.33 1.98 0.66 3 1 C0.69 6.61 -1.62 12.22 -4 18 C-6.67927341 13.98108988 -6.15601248 11.75838077 -6 7 C-4.68 7.33 -3.36 7.66 -2 8 C-2.04125 7.236875 -2.0825 6.47375 -2.125 5.6875 C-2 3 -2 3 0 0 Z " fill="#35373F" transform="translate(683,653)"/>
<path d="M0 0 C0.33 0 0.66 0 1 0 C1 8.25 1 16.5 1 25 C0.34 25.33 -0.32 25.66 -1 26 C-1.2268919 22.60514113 -1.42821794 19.20922665 -1.625 15.8125 C-1.68945312 14.85279297 -1.75390625 13.89308594 -1.8203125 12.90429688 C-1.871875 11.97294922 -1.9234375 11.04160156 -1.9765625 10.08203125 C-2.02893066 9.22843018 -2.08129883 8.3748291 -2.13525391 7.49536133 C-1.9808852 4.64734227 -1.18311391 2.57821923 0 0 Z " fill="#FCF8E3" transform="translate(439,680)"/>
<path d="M0 0 C1.31412508 3.82642302 0.85496169 7.26474833 0.5 11.25 C0.14591996 15.50666907 -0.11690509 19.57207515 0.5625 23.8125 C0.706875 24.864375 0.85125 25.91625 1 27 C0.34 27.66 -0.32 28.32 -1 29 C-2.79059807 25.41880387 -2.18469346 21.25568317 -2.1875 17.3125 C-2.19974609 16.42626953 -2.21199219 15.54003906 -2.22460938 14.62695312 C-2.2363301 9.34871799 -1.72818369 4.99328962 0 0 Z " fill="#D7E8F1" transform="translate(594,660)"/>
<path d="M0 0 C0.66 0 1.32 0 2 0 C1.84660156 0.79664063 1.69320312 1.59328125 1.53515625 2.4140625 C0.89038893 6.73447415 0.64957112 11.01537398 0.4375 15.375 C0.39431641 16.20644531 0.35113281 17.03789063 0.30664062 17.89453125 C0.20138195 19.92953228 0.10026928 21.96474703 0 24 C-0.66 23.67 -1.32 23.34 -2 23 C-2.1031366 15.58562466 -2.10153363 8.3435575 -1 1 C-0.67 0.67 -0.34 0.34 0 0 Z " fill="#363A4E" transform="translate(592,661)"/>
<path d="M0 0 C2.06232699 2.06232699 2.56808484 3.15594031 3.5078125 5.84375 C3.77207031 6.59527344 4.03632813 7.34679687 4.30859375 8.12109375 C4.57800781 8.90613281 4.84742188 9.69117188 5.125 10.5 C5.40214844 11.28503906 5.67929687 12.07007813 5.96484375 12.87890625 C8 18.72371459 8 18.72371459 8 21 C7.01 21 6.02 21 5 21 C4.15774 18.44013121 3.32601449 15.87760985 2.5 13.3125 C2.14228516 12.2306543 2.14228516 12.2306543 1.77734375 11.12695312 C0.55601006 7.30592343 -0.32075577 4.06557944 0 0 Z " fill="#F1E6D1" transform="translate(408,670)"/>
<path d="M0 0 C2.72863567 2.72863567 3.47085394 5.91006895 4.625 9.5 C4.85445313 10.18964844 5.08390625 10.87929688 5.3203125 11.58984375 C7 16.71888951 7 16.71888951 7 19 C6.34 19 5.68 19 5 19 C4.690625 18.195625 4.38125 17.39125 4.0625 16.5625 C3.23664655 14.10919595 3.23664655 14.10919595 2 13 C1.95936168 11.33382885 1.957279 9.66611905 2 8 C1.34 8 0.68 8 0 8 C-1.125 2.25 -1.125 2.25 0 0 Z " fill="#434753" transform="translate(391,657)"/>
<path d="M0 0 C0.33 0 0.66 0 1 0 C2.76443551 10.75667912 2.76443551 10.75667912 -1 16 C-1.99 16.33 -2.98 16.66 -4 17 C-4.33 17.99 -4.66 18.98 -5 20 C-7.0625 20.6875 -7.0625 20.6875 -9 21 C-9.33 20.34 -9.66 19.68 -10 19 C-9.071875 18.443125 -8.14375 17.88625 -7.1875 17.3125 C-3.86768897 14.90400964 -2.54788112 13.74750165 -1 10 C-0.47884295 6.67379174 -0.18922038 3.36029301 0 0 Z " fill="#5A4431" transform="translate(582,658)"/>
<path d="M0 0 C0.33 1.32 0.66 2.64 1 4 C1.66 4 2.32 4 3 4 C3 5.65 3 7.3 3 9 C2.360625 9.103125 1.72125 9.20625 1.0625 9.3125 C0.0415625 9.6528125 0.0415625 9.6528125 -1 10 C-1.33 10.99 -1.66 11.98 -2 13 C-2.66 13 -3.32 13 -4 13 C-3.52511102 11.01980257 -3.04497141 9.04086365 -2.5625 7.0625 C-2.29566406 5.96035156 -2.02882813 4.85820313 -1.75390625 3.72265625 C-1 1 -1 1 0 0 Z " fill="#4A3729" transform="translate(390,661)"/>
<path d="M0 0 C2.72863567 2.72863567 3.47085394 5.91006895 4.625 9.5 C4.85445312 10.18964844 5.08390625 10.87929688 5.3203125 11.58984375 C7 16.71888951 7 16.71888951 7 19 C6.34 19 5.68 19 5 19 C2.0554321 14.00703705 1.36504064 9.66442374 1 4 C0.34 4 -0.32 4 -1 4 C-0.67 2.68 -0.34 1.36 0 0 Z " fill="#454955" transform="translate(731,657)"/>
<path d="M0 0 C0.66 0 1.32 0 2 0 C0.45454854 5.47932789 -2.15543212 10.11429181 -5 15 C-5.68359375 13.359375 -5.68359375 13.359375 -6 11 C-4.78515625 8.203125 -4.78515625 8.203125 -3.0625 5.25 C-2.49660156 4.26515625 -1.93070313 3.2803125 -1.34765625 2.265625 C-0.90292969 1.51796875 -0.45820312 0.7703125 0 0 Z " fill="#F0E6D2" transform="translate(696,655)"/>
<path d="M0 0 C5.18605661 2.17090742 7.9072863 4.40778875 11 9 C10.8125 11.375 10.8125 11.375 10 13 C9.34 12.34 8.68 11.68 8 11 C8 9.68 8 8.36 8 7 C7.34 7 6.68 7 6 7 C5.67 6.34 5.34 5.68 5 5 C4.154375 4.505 3.30875 4.01 2.4375 3.5 C1.633125 3.005 0.82875 2.51 0 2 C0 1.34 0 0.68 0 0 Z " fill="#F6F0DE" transform="translate(571,646)"/>
<path d="M0 0 C0.99 0.99 1.98 1.98 3 3 C1.35 5.97 -0.3 8.94 -2 12 C-2.33 12 -2.66 12 -3 12 C-2.88541307 10.56163249 -2.75790884 9.12429034 -2.625 7.6875 C-2.55539062 6.88699219 -2.48578125 6.08648438 -2.4140625 5.26171875 C-2 3 -2 3 0 0 Z " fill="#343339" transform="translate(597,648)"/>
<path d="M0 0 C3 3 3 3 3.14453125 5.8828125 C3.03496094 6.95273437 2.92539062 8.02265625 2.8125 9.125 C2.71582031 10.20007813 2.61914062 11.27515625 2.51953125 12.3828125 C2.34808594 13.24648438 2.17664063 14.11015625 2 15 C1.01 15.495 1.01 15.495 0 16 C0 10.72 0 5.44 0 0 Z " fill="#D7EAF2" transform="translate(636,668)"/>
<path d="M0 0 C-0.99 3.3 -1.98 6.6 -3 10 C-3.66 9.67 -4.32 9.34 -5 9 C-5.40729228 6.67843403 -5.74438677 4.3431213 -6 2 C-3 0 -3 0 0 0 Z " fill="#373640" transform="translate(320,657)"/>
<path d="M0 0 C0 3 0 3 -2.375 5.4375 C-3.24125 6.283125 -4.1075 7.12875 -5 8 C-6.29519995 10.16620544 -6.29519995 10.16620544 -7 12 C-7.66 12 -8.32 12 -9 12 C-7.18690951 6.71181939 -4.67111564 3.11407709 0 0 Z " fill="#DFECF2" transform="translate(604,648)"/>
<path d="M0 0 C0.2475 0.639375 0.495 1.27875 0.75 1.9375 C1.81562433 4.18741541 1.81562433 4.18741541 4.125 4.75 C4.74375 4.8325 5.3625 4.915 6 5 C3.04335481 6.4783226 0.25770263 6.06032783 -3 6 C-3.33 5.34 -3.66 4.68 -4 4 C-2.68 2.68 -1.36 1.36 0 0 Z " fill="#E3E0DE" transform="translate(480,881)"/>
<path d="M0 0 C0.66 0.33 1.32 0.66 2 1 C1.67515625 1.90492188 1.67515625 1.90492188 1.34375 2.828125 C1.0653125 3.62734375 0.786875 4.4265625 0.5 5.25 C0.2215625 6.03890625 -0.056875 6.8278125 -0.34375 7.640625 C-1.17864861 10.23412738 -1.17864861 10.23412738 -1 14 C-1.99 14 -2.98 14 -4 14 C-4.33 12.68 -4.66 11.36 -5 10 C-4.34 10 -3.68 10 -3 10 C-2.87625 9.46375 -2.7525 8.9275 -2.625 8.375 C-1.87793984 5.5361714 -0.94696636 2.77776798 0 0 Z " fill="#323741" transform="translate(366,692)"/>
<path d="M0 0 C0.33 0 0.66 0 1 0 C1 7.26 1 14.52 1 22 C0.01 22.33 -0.98 22.66 -2 23 C-1.505 21.515 -1.505 21.515 -1 20 C-0.8535286 18.44733347 -0.75305926 16.89004338 -0.68359375 15.33203125 C-0.64169922 14.43935547 -0.59980469 13.54667969 -0.55664062 12.62695312 C-0.51732422 11.69818359 -0.47800781 10.76941406 -0.4375 9.8125 C-0.37272461 8.40194336 -0.37272461 8.40194336 -0.30664062 6.96289062 C-0.20061335 4.64207146 -0.09854971 2.32114675 0 0 Z " fill="#FCF6E5" transform="translate(683,683)"/>
<path d="M0 0 C1.59373901 2.39060851 2.65297076 4.30828179 3.6875 6.9375 C3.95949219 7.60652344 4.23148438 8.27554688 4.51171875 8.96484375 C5.0787676 11.32830338 4.76024003 12.7192799 4 15 C-0.59225513 5.77448747 -0.59225513 5.77448747 0 0 Z " fill="#EBDDC7" transform="translate(746,664)"/>
<path d="M0 0 C2.64752004 2.57784846 4.94432065 4.91648098 7 8 C3.25 9.125 3.25 9.125 1 8 C0.40644386 5.35139573 0.25790731 2.70802678 0 0 Z " fill="#383940" transform="translate(595,695)"/>
<path d="M0 0 C2.74792483 3.40219265 6 7.48464588 6 12 C5.01 11.67 4.02 11.34 3 11 C3 10.34 3 9.68 3 9 C2.34 9 1.68 9 1 9 C0.67 6.03 0.34 3.06 0 0 Z " fill="#3D4452" transform="translate(656,652)"/>
<path d="M0 0 C1.11375 0.598125 2.2275 1.19625 3.375 1.8125 C4.00148438 2.14894531 4.62796875 2.48539063 5.2734375 2.83203125 C7 4 7 4 9 7 C5 7 5 7 2.25 4.625 C0 2 0 2 0 0 Z " fill="#E9E6E4" transform="translate(753,532)"/>
<path d="M0 0 C0.66 0.33 1.32 0.66 2 1 C0.68 4.96 -0.64 8.92 -2 13 C-2.33 13 -2.66 13 -3 13 C-3 10.36 -3 7.72 -3 5 C-2.34 5 -1.68 5 -1 5 C-0.67 3.35 -0.34 1.7 0 0 Z " fill="#FAF2DE" transform="translate(718,692)"/>
<path d="M0 0 C0.33 0 0.66 0 1 0 C0.38461538 6.52307692 0.38461538 6.52307692 -1.5625 8.9375 C-2.036875 9.288125 -2.51125 9.63875 -3 10 C-4 7 -4 7 -3.22265625 5.17578125 C-2.1484375 3.45052083 -1.07421875 1.72526042 0 0 Z " fill="#503B28" transform="translate(691,669)"/>
<path d="M0 0 C4.82029598 3.85623679 4.82029598 3.85623679 5.33203125 7.11328125 C5.3145776 9.07856214 5.16596091 11.04166127 5 13 C4.67 13 4.34 13 4 13 C4 11.02 4 9.04 4 7 C3.34 7 2.68 7 2 7 C0.5393715 4.35261084 0 3.10551666 0 0 Z " fill="#36373E" transform="translate(629,656)"/>
<path d="M0 0 C-0.99644289 2.49110723 -1.57968326 3.75594512 -3.9375 5.125 C-4.618125 5.41375 -5.29875 5.7025 -6 6 C-6.99 6.66 -7.98 7.32 -9 8 C-9 7.01 -9 6.02 -9 5 C-7.5390625 3.61328125 -7.5390625 3.61328125 -5.625 2.3125 C-4.68527344 1.65701172 -4.68527344 1.65701172 -3.7265625 0.98828125 C-2 0 -2 0 0 0 Z " fill="#EDEAE8" transform="translate(446,499)"/>
<path d="M0 0 C4.26086957 6.39130435 4.26086957 6.39130435 3.625 10.3125 C3.41875 10.869375 3.2125 11.42625 3 12 C2.34 11.67 1.68 11.34 1 11 C0.5859375 8.49609375 0.5859375 8.49609375 0.375 5.4375 C0.30023437 4.42558594 0.22546875 3.41367187 0.1484375 2.37109375 C0.09945312 1.58863281 0.05046875 0.80617188 0 0 Z " fill="#EFE4CE" transform="translate(740,647)"/>
<path d="M0 0 C-1.49097658 3.7952131 -3.75700849 5.61042731 -7 8 C-7.66 7.67 -8.32 7.34 -9 7 C-7.88121617 5.82737096 -6.75476949 4.66204862 -5.625 3.5 C-4.68527344 2.52546875 -4.68527344 2.52546875 -3.7265625 1.53125 C-2 0 -2 0 0 0 Z " fill="#433D3B" transform="translate(402,405)"/>
<path d="M0 0 C0.33 0 0.66 0 1 0 C1.28571429 7.42857143 1.28571429 7.42857143 -1 11 C-1.66 11 -2.32 11 -3 11 C-2.01 7.37 -1.02 3.74 0 0 Z " fill="#D4E7EE" transform="translate(381,653)"/>
<path d="M0 0 C0.99 0 1.98 0 3 0 C2.54738642 1.43931117 2.08767021 2.87638999 1.625 4.3125 C1.36976563 5.11300781 1.11453125 5.91351562 0.8515625 6.73828125 C0 9 0 9 -2 12 C-1 3.42857143 -1 3.42857143 0 0 Z " fill="#333A46" transform="translate(382,644)"/>
<path d="M0 0 C2.76223278 2.76223278 2.57856291 5.20706617 3 9 C1.35 9.33 -0.3 9.66 -2 10 C-1.34 9.34 -0.68 8.68 0 8 C0.24212873 6.01871492 0.24212873 6.01871492 0.125 3.875 C0.063125 1.956875 0.063125 1.956875 0 0 Z " fill="#F5EAD6" transform="translate(417,696)"/>
<path d="M0 0 C2.44839588 3.67259383 4 6.54648201 4 11 C3.01 11 2.02 11 1 11 C0.67 7.37 0.34 3.74 0 0 Z " fill="#333C48" transform="translate(568,694)"/>
<path d="M0 0 C0.66 0 1.32 0 2 0 C0.25 7.625 0.25 7.625 -2 11 C-1.85957123 9.35369672 -1.71250671 7.70795821 -1.5625 6.0625 C-1.48128906 5.14597656 -1.40007812 4.22945312 -1.31640625 3.28515625 C-1 1 -1 1 0 0 Z " fill="#F9F0DB" transform="translate(386,666)"/>
<path d="M0 0 C2.97 0.495 2.97 0.495 6 1 C5.34 1.66 4.68 2.32 4 3 C2.68 3 1.36 3 0 3 C0 3.99 0 4.98 0 6 C-0.66 6 -1.32 6 -2 6 C-1.49396008 3.83125748 -1.00016187 2.00032373 0 0 Z " fill="#483729" transform="translate(608,660)"/>
<path d="M0 0 C1.32 0.33 2.64 0.66 4 1 C4 3.31 4 5.62 4 8 C3.01 8.495 3.01 8.495 2 9 C1.855625 7.88625 1.71125 6.7725 1.5625 5.625 C1.21627965 2.17857953 1.21627965 2.17857953 0 0 Z " fill="#FDF9E4" transform="translate(500,670)"/>
<path d="M0 0 C0.66 0 1.32 0 2 0 C0.34832443 3.5786304 -1.78286492 6.74820188 -4 10 C-4 5.75354935 -2.18249194 3.61475228 0 0 Z " fill="#D6E4EB" transform="translate(323,652)"/>
<path d="M0 0 C0 3 0 3 -1.3125 4.38671875 C-2.875 5.59114583 -4.4375 6.79557292 -6 8 C-6.66 7.67 -7.32 7.34 -8 7 C-5.36 4.69 -2.72 2.38 0 0 Z " fill="#29231F" transform="translate(746,781)"/>
<path d="M0 0 C2.625 -0.1875 2.625 -0.1875 5 0 C3.02 2.31 1.04 4.62 -1 7 C-1.33 5.68 -1.66 4.36 -2 3 C-1.34 2.01 -0.68 1.02 0 0 Z " fill="#ECE4D4" transform="translate(609,655)"/>
<path d="M0 0 C-1.38081223 4.1424367 -3.59825558 5.32203099 -7 8 C-7.66 7.67 -8.32 7.34 -9 7 C-7.88121617 5.82737096 -6.75476949 4.66204862 -5.625 3.5 C-4.68527344 2.52546875 -4.68527344 2.52546875 -3.7265625 1.53125 C-2 0 -2 0 0 0 Z " fill="#251F1C" transform="translate(412,396)"/>
<path d="M0 0 C0.66 0.99 1.32 1.98 2 3 C0.625 6.6875 0.625 6.6875 -1 10 C-1.66 10 -2.32 10 -3 10 C-2.01 6.7 -1.02 3.4 0 0 Z " fill="#E1F1F7" transform="translate(371,683)"/>
<path d="M0 0 C1.39195915 4.17587745 -0.17676781 6.13474776 -2 10 C-2.66 9.01 -3.32 8.02 -4 7 C-2.68 4.69 -1.36 2.38 0 0 Z " fill="#EBE8E6" transform="translate(348,458)"/>
</svg>
