<?xml version="1.0" encoding="UTF-8"?>
<svg version="1.1" xmlns="http://www.w3.org/2000/svg" width="440" height="347">
<path d="M0 0 C145.2 0 290.4 0 440 0 C440 114.51 440 229.02 440 347 C294.8 347 149.6 347 0 347 C0 232.49 0 117.98 0 0 Z " fill="#362D28" transform="translate(0,0)"/>
<path d="M0 0 C5.69384522 1.48535093 8.92739338 5.82566806 12.4375 10.3125 C16.06976627 15.20567091 16.06976627 15.20567091 20.875 18.75 C26.53478449 18.63613451 30.38582556 16.69398425 35.0625 13.8125 C45.13975089 7.78770508 45.13975089 7.78770508 48.3125 7.625 C55.42505948 10.74758709 57.77381815 21.02971933 60.4453125 27.7734375 C61.67725739 30.98640118 61.67725739 30.98640118 64.875 32.75 C71.37443415 33.36315416 77.11611915 31.90157277 83.41015625 30.30859375 C87.27569209 29.68540139 90.08384394 29.77149033 93.875 30.75 C95.77734375 32.19140625 95.77734375 32.19140625 96.875 34.75 C97.31481288 38.06041133 97.38720259 41.35110515 97.4375 44.6875 C97.2769583 52.55484102 97.2769583 52.55484102 99.875 59.75 C104.12285675 62.38882011 109.01653398 62.11591896 113.875 62.25 C125.7013773 62.5763773 125.7013773 62.5763773 129.875 66.75 C130.27386621 71.84177643 129.43865722 75.86079422 127.875 80.6875 C126.29026744 85.98874058 125.14805124 90.24595935 125.875 95.75 C127.92431104 98.35324269 129.82611459 99.28943473 132.96484375 100.21484375 C133.74923828 100.45783203 134.53363281 100.70082031 135.34179688 100.95117188 C136.98427743 101.44067003 138.62750623 101.92766466 140.27148438 102.41210938 C148.45341073 104.95595686 148.45341073 104.95595686 150.875 108.75 C152.01140111 115.24484803 149.29849303 119.10786532 145.875 124.3125 C141.29685972 130.93814846 141.29685972 130.93814846 140.875 138.75 C143.80169672 144.34165634 149.8203629 148.28513593 154.703125 152.05078125 C158.79591134 155.25287128 158.79591134 155.25287128 159.3125 158.5 C158.875 161.75 158.875 161.75 153.875 167.75 C175.655 168.245 175.655 168.245 197.875 168.75 C197.875 170.73 197.875 172.71 197.875 174.75 C70.165 174.75 -57.545 174.75 -189.125 174.75 C-189.125 172.77 -189.125 170.79 -189.125 168.75 C-177.245 168.42 -165.365 168.09 -153.125 167.75 C-155.6 165.275 -155.6 165.275 -158.125 162.75 C-158.455 162.42 -158.785 162.09 -159.125 161.75 C-158.97978529 157.55379561 -158.72656766 155.39973407 -155.83203125 152.2734375 C-154.87683594 151.56445312 -153.92164063 150.85546875 -152.9375 150.125 C-151.45056641 148.98998047 -151.45056641 148.98998047 -149.93359375 147.83203125 C-148.54333984 146.80142578 -148.54333984 146.80142578 -147.125 145.75 C-143.0654228 142.73377417 -143.0654228 142.73377417 -140.125 138.75 C-139.65369934 133.81520483 -140.60122439 131.30577274 -143.375 127.25 C-144.32826172 125.81914062 -144.32826172 125.81914062 -145.30078125 124.359375 C-146.33856657 122.87491976 -147.38970281 121.39909713 -148.48046875 119.953125 C-150.49302345 117.25034396 -151.1630114 115.50503766 -151.6875 112.125 C-151.125 108.75 -151.125 108.75 -149.12890625 106.7578125 C-144.77011789 103.84439609 -140.08382281 102.20583986 -135.1875 100.39453125 C-129.67260851 98.31469577 -129.67260851 98.31469577 -126.125 93.75 C-125.57694916 89.27425145 -126.36321918 85.69150389 -127.625 81.4375 C-129.05947355 76.43753209 -130.58108047 70.88459955 -129.125 65.75 C-124.89166552 61.93403653 -120.07779837 62.30809405 -114.6875 62.25 C-106.48758732 62.18371983 -106.48758732 62.18371983 -99.125 58.75 C-97.56306163 54.36169697 -97.13120074 50.36165581 -96.93359375 45.7421875 C-96.90112549 45.03408936 -96.86865723 44.32599121 -96.83520508 43.59643555 C-96.77917312 42.1766916 -96.7432727 40.75598506 -96.72924805 39.33520508 C-96.62011614 35.96846537 -96.32563363 34.02921879 -94.33984375 31.265625 C-91.82775466 29.54659402 -91.0143718 29.33247599 -88.0625 29.8125 C-87.27875 29.93625 -86.495 30.06 -85.6875 30.1875 C-82.94157132 30.79026483 -80.26316595 31.53230761 -77.5625 32.3125 C-72.80561137 33.65162411 -69.04973152 34.44119039 -64.125 33.75 C-60.02812268 29.73313982 -58.44843881 24.90562867 -56.5625 19.625 C-55.98547791 18.01547939 -55.40110297 16.40857151 -54.80859375 14.8046875 C-54.55650146 14.09812012 -54.30440918 13.39155273 -54.04467773 12.66357422 C-53.00774374 10.50602481 -51.99949064 9.23605662 -50.125 7.75 C-42.94417901 7.45079913 -37.85052004 11.86814815 -32.125 15.75 C-27.58015407 18.89371779 -27.58015407 18.89371779 -22.203125 19.62890625 C-18.43082586 18.55179038 -17.17818033 17.18088645 -14.6875 14.1875 C-13.53507812 12.84365234 -13.53507812 12.84365234 -12.359375 11.47265625 C-10.9576234 9.76457781 -9.56987284 8.04480798 -8.203125 6.30859375 C-3.84902446 0.92376587 -3.84902446 0.92376587 0 0 Z " fill="#F0F0F0" transform="translate(214.125,12.25)"/>
<path d="M0 0 C3.54712274 3.04313782 6.90527721 6.25818864 10.21533203 9.55810547 C11.06224609 10.39857422 11.90916016 11.23904297 12.78173828 12.10498047 C31.39269882 30.86530666 43.90532835 54.28508244 48.09033203 80.49560547 C48.21053711 81.22021973 48.33074219 81.94483398 48.45458984 82.69140625 C49.70754933 91.70456841 49.21533203 100.29693524 49.21533203 109.55810547 C34.03533203 109.55810547 18.85533203 109.55810547 3.21533203 109.55810547 C4.86533203 107.90810547 6.51533203 106.25810547 8.21533203 104.55810547 C13.81164439 98.81694738 17.7075933 92.91015177 18.65283203 84.80810547 C18.16419631 81.17824014 17.55801304 79.36932268 15.21533203 76.55810547 C10.45539572 73.38481459 5.78188871 72.91683912 0.21533203 72.55810547 C0.15925781 71.41921875 0.15925781 71.41921875 0.10205078 70.25732422 C0.03630859 69.26345703 -0.02943359 68.26958984 -0.09716797 67.24560547 C-0.18417969 65.76640625 -0.18417969 65.76640625 -0.27294922 64.25732422 C-0.84028611 61.26473039 -1.36275892 60.33570617 -3.78466797 58.55810547 C-6.87112468 57.52928656 -9.00186003 57.42495173 -12.23690796 57.41093445 C-13.36971695 57.40377914 -14.50252594 57.39662384 -15.66966248 57.38925171 C-16.91337112 57.38656281 -18.15707977 57.3838739 -19.43847656 57.38110352 C-20.7476152 57.37453232 -22.05675385 57.36796112 -23.40556335 57.3611908 C-27.74806496 57.34016952 -32.09056685 57.32979183 -36.43310547 57.31982422 C-37.92846317 57.31577627 -39.42382069 57.31165933 -40.91917801 57.30747414 C-47.94310236 57.28842856 -54.96701623 57.27419488 -61.99096143 57.26586217 C-70.09875703 57.25608462 -78.20628 57.2297492 -86.31397951 57.18936127 C-92.58158456 57.15921072 -98.84911138 57.14439441 -105.11678755 57.14108115 C-108.86006942 57.13872988 -112.60305981 57.1297596 -116.34626389 57.10461998 C-120.52170772 57.07702943 -124.69654116 57.08116709 -128.87207031 57.08813477 C-130.1117305 57.07532471 -131.35139069 57.06251465 -132.62861633 57.04931641 C-133.76706497 57.05626022 -134.90551361 57.06320404 -136.07846069 57.07035828 C-137.5590072 57.06677575 -137.5590072 57.06677575 -139.06946373 57.06312084 C-142.56408552 57.70019412 -144.25884664 59.10907425 -146.78466797 61.55810547 C-150.12096682 73.52953077 -143.22127515 89.62854215 -137.53466797 99.99560547 C-136.84616485 101.20504035 -136.15376449 102.4122693 -135.45654297 103.61669922 C-133.78466797 106.55810547 -133.78466797 106.55810547 -132.78466797 109.55810547 C-155.55466797 109.55810547 -178.32466797 109.55810547 -201.78466797 109.55810547 C-201.78466797 71.98931515 -194.17018767 42.07760931 -168.78466797 14.55810547 C-167.90939453 13.60033203 -167.03412109 12.64255859 -166.13232422 11.65576172 C-123.68492587 -32.78622804 -48.2402981 -38.97499324 0 0 Z " fill="#352C27" transform="translate(290.78466796875,71.44189453125)"/>
<path d="M0 0 C127.71 0 255.42 0 387 0 C387 1.98 387 3.96 387 6 C363.9 6 340.8 6 317 6 C317.66 7.65 318.32 9.3 319 11 C319.3359375 13.3515625 319.3359375 13.3515625 319.375 15.625 C319.40335937 16.38039063 319.43171875 17.13578125 319.4609375 17.9140625 C319 20 319 20 317.28759766 21.6027832 C314.6126764 23.23656915 313.05004612 23.39356059 309.9375 23.44140625 C308.97585938 23.46783203 308.01421875 23.49425781 307.0234375 23.52148438 C306.02570313 23.53501953 305.02796875 23.54855469 304 23.5625 C302.020668 23.59702323 300.04145708 23.63967748 298.0625 23.69140625 C297.18722656 23.70373291 296.31195313 23.71605957 295.41015625 23.72875977 C292.76287541 24.02668612 291.20135452 24.50202104 289 26 C287.08789527 28.85582951 286.74469641 31.19564354 286.69140625 34.58984375 C286.66626953 35.45673828 286.64113281 36.32363281 286.61523438 37.21679688 C286.5801552 39.02662254 286.54888821 40.83652622 286.52148438 42.64648438 C286.3574508 48.03558739 286.01133599 51.98866401 282 56 C275.02983262 56.58084728 269.68778175 55.18691226 263.11328125 52.875 C259.76327689 51.93346804 257.44994525 51.48273913 254 52 C249.03598248 55.634499 247.63814221 59.91791832 245.9375 65.5625 C242.88714429 75.56800851 242.88714429 75.56800851 239 78 C232.08337636 78.13981284 227.9119667 74.50297449 222.69335938 70.50585938 C217.9257283 67.067807 214.89293364 66.04681948 209 67 C206.19458064 69.04953021 206.19458064 69.04953021 204 72 C203.13199565 73.0264522 202.26349455 74.0524845 201.39453125 75.078125 C200.08599447 76.67766769 198.78546692 78.28344299 197.48632812 79.890625 C193.46270609 84.80497252 193.46270609 84.80497252 189.1875 85.375 C184.83198994 84.86258705 183.83092287 83.31425117 181 80 C180.43023437 79.360625 179.86046875 78.72125 179.2734375 78.0625 C176.65366394 75.11943524 174.20449855 72.31664292 172.0625 69 C170.03295892 66.67624626 170.03295892 66.67624626 166.4375 66.25 C160.4098472 66.60918974 155.82010261 70.71165012 151 74 C147.50895159 76.10646311 144.42277617 77.96766418 140.25 78.0625 C135.99689905 76.05409122 134.26170962 72.71872492 132.69140625 68.40625 C132.10934583 66.45289469 131.56057007 64.49296308 131.02148438 62.52734375 C129.61088781 57.82535522 127.98555307 54.91489113 124 52 C118.90266962 51.33846929 114.78523704 52.45387789 109.9375 54 C105.45359935 55.42692087 101.72123697 56.35787802 97 56 C94.1804728 54.05549848 93.63125953 52.27057737 93 49 C92.73251481 45.27643627 92.55611247 41.55309008 92.37890625 37.82421875 C91.70384651 30.76378419 91.70384651 30.76378419 88 25 C83.32811468 23.48246991 78.33365883 23.69005044 73.46289062 23.5703125 C68.31669901 23.35113131 64.62408583 22.28455496 60 20 C59.97294271 18.22925083 59.95357805 16.45838289 59.9375 14.6875 C59.92589844 13.70136719 59.91429687 12.71523438 59.90234375 11.69921875 C60 9 60 9 61 6 C40.87 6 20.74 6 0 6 C0 4.02 0 2.04 0 0 Z " fill="#EFEFEE" transform="translate(25,245)"/>
<path d="M0 0 C63.69 0 127.38 0 193 0 C177.00339596 21.32880539 154.32155395 34.49947082 129 42 C127.83984375 42.350625 126.6796875 42.70125 125.484375 43.0625 C94.410841 51.42309211 59.65741758 44.47862102 32 29 C23.22638818 23.6589009 15.39809366 17.10472098 8 10 C7.21109375 9.25105469 6.4221875 8.50210937 5.609375 7.73046875 C1.47953382 3.7233676 1.47953382 3.7233676 0 2 C0 1.34 0 0.68 0 0 Z " fill="#352C27" transform="translate(118,251)"/>
<path d="M0 0 C2.0717142 1.80173686 4.10659959 3.63885103 6.125 5.5 C7.00800781 6.31210938 7.89101563 7.12421875 8.80078125 7.9609375 C32.41029434 30.65250685 47.91107094 63.77063928 49.24951172 96.54931641 C49.36893004 102.86861807 49.30169694 109.18240485 49.125 115.5 C47.145 115.5 45.165 115.5 43.125 115.5 C43.10312622 114.39881836 43.10312622 114.39881836 43.08081055 113.27539062 C42.17266842 72.27742653 31.11362581 38.40010934 1.1796875 9.25390625 C-22.36144446 -12.41656022 -55.34685489 -25.52339958 -87.46875 -24.89794922 C-89.60884984 -24.80523183 -91.73917283 -24.66382765 -93.875 -24.5 C-94.69226563 -24.4395752 -95.50953125 -24.37915039 -96.3515625 -24.31689453 C-132.15309205 -21.31784849 -163.81192678 -4.64961462 -187.1875 22.4375 C-205.97599748 45.8167145 -215.31135224 73.69612221 -216.4375 103.4375 C-216.48068359 104.50291016 -216.52386719 105.56832031 -216.56835938 106.66601562 C-216.67374489 109.27723443 -216.77587088 111.88853746 -216.875 114.5 C-218.855 114.5 -220.835 114.5 -222.875 114.5 C-223.69391367 84.01821344 -218.01633519 53.75484629 -199.875 28.5 C-199.17117187 27.50097656 -198.46734375 26.50195312 -197.7421875 25.47265625 C-176.96014151 -2.81973309 -147.00157883 -22.72057205 -112.26953125 -28.9921875 C-111.14933594 -29.15976562 -110.02914062 -29.32734375 -108.875 -29.5 C-107.70195312 -29.68304688 -106.52890625 -29.86609375 -105.3203125 -30.0546875 C-67.67263818 -34.57619891 -29.14089259 -24.59304223 0 0 Z " fill="#352C27" transform="translate(300.875,66.5)"/>
<path d="M0 0 C3.05859375 -0.45703125 3.05859375 -0.45703125 7 0 C9.76125939 2.07727068 11.8521707 4.67162928 14.0625 7.3125 C32.08807526 27.61817602 55.56847488 40.84431369 82 47 C82.75684082 47.17732666 83.51368164 47.35465332 84.29345703 47.53735352 C92.53766429 49.2683135 100.73921448 49.35674717 109.125 49.3125 C109.85743927 49.31034485 110.58987854 49.3081897 111.34451294 49.30596924 C122.17249899 49.25478707 132.49820521 48.88005426 143 46 C143.6997998 45.81195801 144.39959961 45.62391602 145.12060547 45.43017578 C169.75425666 38.61730459 196.33950355 23.41526757 211.0625 2 C213 0 213 0 216.75 -0.3125 C218.35875 -0.1578125 218.35875 -0.1578125 220 0 C215.93877099 5.59348757 211.66618389 10.89927127 207 16 C206.49082031 16.56332031 205.98164063 17.12664062 205.45703125 17.70703125 C183.29918502 41.06851357 149.71211693 55.33101667 117.80859375 56.3359375 C102.76931777 56.51954014 88.55763941 55.92565557 74 52 C73.23333008 51.79632813 72.46666016 51.59265625 71.67675781 51.3828125 C44.14769468 43.78858819 15.53151889 25.33271293 0 1 C0 0.67 0 0.34 0 0 Z " fill="#362D28" transform="translate(104,251)"/>
<path d="M0 0 C6.10642805 2.03547602 11.2669004 5.08968015 14.4375 10.8125 C16.55011082 15.69619775 16.87268989 20.043763 15.375 25.1171875 C13.08205345 30.8700266 9.54871225 35.62404228 5.8046875 40.51953125 C2.35937633 45.25496976 1.1121892 49.09552337 2 55 C3.62607004 59.42162888 5.98306164 63.37967397 9 67 C2.82295061 65.49340259 -1.90250059 62.34209997 -5.296875 56.93359375 C-8.67108483 50.29520268 -10.00068062 44.46301998 -9 37 C-6.5465155 30.49466976 -2.94156499 24.69337165 1 19 C3.08708012 12.73875963 2.54971958 6.055584 0 0 Z " fill="#EFEFEF" transform="translate(215,59)"/>
<path d="M0 0 C3.59500946 2.78796652 4.70824448 4.22081232 5.4375 8.66796875 C5.6355349 13.25371448 5.51618802 16.13968663 3.125 20.125 C-0.42023244 23.25314627 -3.07091133 23.3925733 -7.671875 23.35546875 C-11.62769681 22.75147582 -13.30658423 20.89542195 -16 18 C-17.24217258 14.27348227 -17.5341253 10.87057926 -17 7 C-13.03310202 -0.65044611 -8.09984453 -2.39248077 0 0 Z " fill="#EFEFED" transform="translate(243,204)"/>
<path d="M0 0 C2.3925 -0.0825 4.785 -0.165 7.25 -0.25 C7.99668945 -0.28641602 8.74337891 -0.32283203 9.51269531 -0.36035156 C12.93893917 -0.41748634 14.69678412 -0.22897861 17.45703125 1.85546875 C19 4 19 4 19.4375 6.5625 C18.93029068 9.38838048 18.29652664 10.321769 16 12 C15.34 12 14.68 12 14 12 C14.433125 12.62648437 14.86625 13.25296875 15.3125 13.8984375 C15.869375 14.71570313 16.42625 15.53296875 17 16.375 C17.556875 17.18710938 18.11375 17.99921875 18.6875 18.8359375 C20 21 20 21 20 23 C17.7265625 23.27734375 17.7265625 23.27734375 15 23 C13.0859375 21.06640625 13.0859375 21.06640625 11.375 18.5625 C8.93854248 14.83451733 8.93854248 14.83451733 5 13 C5 16.3 5 19.6 5 23 C3.35 23 1.7 23 0 23 C0 15.41 0 7.82 0 0 Z " fill="#ECEAE8" transform="translate(204,204)"/>
<path d="M0 0 C5.75 3.625 5.75 3.625 8 7 C8.98483544 14.191589 8.15240657 19.11742403 4 25 C3.2575 25.94875 2.515 26.8975 1.75 27.875 C-0.57695819 32.03028249 -0.72337604 35.33547176 0 40 C1.34746524 43.45346148 1.34746524 43.45346148 3 46 C-1.21752761 44.43795274 -3.37399346 41.54865748 -6 38 C-7.87136865 32.2221493 -7.93343239 26.2729228 -5.1875 20.8125 C-3.94262919 18.55312592 -2.61357311 16.37895678 -1.25 14.1875 C0.59060408 9.49395959 0.23931864 4.98137325 0 0 Z " fill="#EEEEEE" transform="translate(199,65)"/>
<path d="M0 0 C0.69222656 0.06703125 1.38445312 0.1340625 2.09765625 0.203125 C3.9375 0.75 3.9375 0.75 5.9375 3.75 C5.9375 9.69478997 2.89235179 13.61783517 -1.0625 17.75 C-6.77319473 22.62770617 -11.78800241 25.96517903 -19.0625 27.75 C-18.53140625 26.80640625 -18.0003125 25.8628125 -17.453125 24.890625 C-13.48378941 17.71409629 -10.1263537 10.91044037 -7.94921875 2.9453125 C-7.65660156 2.22085938 -7.36398437 1.49640625 -7.0625 0.75 C-4.18049341 -0.21066886 -2.91744009 -0.32718954 0 0 Z " fill="#372E29" transform="translate(295.0625,152.25)"/>
<path d="M0 0 C1.65 0 3.3 0 5 0 C5.47179687 1.14275391 5.47179687 1.14275391 5.953125 2.30859375 C8.31320272 8.00263667 10.70918356 13.66487834 13.30078125 19.2578125 C14 21 14 21 14 23 C12.35 23 10.7 23 9 23 C8.34 21.68 7.68 20.36 7 19 C4.03 19 1.06 19 -2 19 C-2.66 20.32 -3.32 21.64 -4 23 C-5.65 23 -7.3 23 -9 23 C-8.06745036 20.28987192 -7.12915006 17.58196565 -6.1875 14.875 C-5.79594727 13.73417969 -5.79594727 13.73417969 -5.39648438 12.5703125 C-3.87195297 8.20375341 -2.17844114 4.09520766 0 0 Z " fill="#E9E9E8" transform="translate(280,204)"/>
<path d="M0 0 C1.2065625 0.0309375 1.2065625 0.0309375 2.4375 0.0625 C3.9403142 3.70717971 5.43927933 7.35342988 6.9375 11 C7.36675781 12.04091797 7.79601562 13.08183594 8.23828125 14.15429688 C8.84736328 15.63833008 8.84736328 15.63833008 9.46875 17.15234375 C9.84580078 18.06878662 10.22285156 18.98522949 10.61132812 19.92944336 C11.4375 22.0625 11.4375 22.0625 11.4375 23.0625 C9.7875 23.0625 8.1375 23.0625 6.4375 23.0625 C6.21320313 22.41796875 5.98890625 21.7734375 5.7578125 21.109375 C4.60860544 18.81861148 4.60860544 18.81861148 2.0546875 18.453125 C0.69730469 18.38351563 0.69730469 18.38351563 -0.6875 18.3125 C-1.59757813 18.25578125 -2.50765625 18.1990625 -3.4453125 18.140625 C-4.49332031 18.10195312 -4.49332031 18.10195312 -5.5625 18.0625 C-5.8925 19.7125 -6.2225 21.3625 -6.5625 23.0625 C-8.2125 23.0625 -9.8625 23.0625 -11.5625 23.0625 C-4.16833333 0.10166667 -4.16833333 0.10166667 0 0 Z " fill="#E8E9E7" transform="translate(140.5625,203.9375)"/>
<path d="M0 0 C5.61 0 11.22 0 17 0 C17 1.32 17 2.64 17 4 C12.71 4 8.42 4 4 4 C4 5.65 4 7.3 4 9 C7.96 9 11.92 9 16 9 C16 10.32 16 11.64 16 13 C12.04 13 8.08 13 4 13 C4 14.98 4 16.96 4 19 C8.29 19 12.58 19 17 19 C17 20.32 17 21.64 17 23 C11.39 23 5.78 23 0 23 C0 15.41 0 7.82 0 0 Z " fill="#F1F1EE" transform="translate(174,204)"/>
<path d="M0 0 C2.8125 1.25 2.8125 1.25 5 3 C5.8125 5.1875 5.8125 5.1875 6 7 C4.1875 7.6875 4.1875 7.6875 2 8 C1.525625 7.505 1.05125 7.01 0.5625 6.5 C0.046875 6.005 -0.46875 5.51 -1 5 C-4.31818985 5.24205349 -4.31818985 5.24205349 -7 7 C-7.1245486 8.64230364 -7.17568524 10.29052276 -7.1875 11.9375 C-7.20167969 12.83339844 -7.21585937 13.72929687 -7.23046875 14.65234375 C-7.23194769 17.19114534 -7.23194769 17.19114534 -5 19 C-2.46048456 18.90888062 -2.46048456 18.90888062 0 18 C0.66 17.01 1.32 16.02 2 15 C3.32 15.33 4.64 15.66 6 16 C5.8125 18.3125 5.8125 18.3125 5 21 C2.30404478 23.23379146 0.47377444 23.9407782 -3 24.375 C-6.45001843 23.9437477 -8.26337663 23.12848485 -11 21 C-13.7249271 16.58274976 -13.80157229 12.03958817 -13 7 C-9.92203067 1.29030968 -6.32959421 -0.49643876 0 0 Z " fill="#EAEAE9" transform="translate(121,203)"/>
<path d="M0 0 C5.28 0 10.56 0 16 0 C16 1.32 16 2.64 16 4 C12.37 4 8.74 4 5 4 C5 5.65 5 7.3 5 9 C7.97 9 10.94 9 14 9 C14 10.32 14 11.64 14 13 C11.03 13 8.06 13 5 13 C5 16.3 5 19.6 5 23 C3.35 23 1.7 23 0 23 C0 15.41 0 7.82 0 0 Z " fill="#ECEBE9" transform="translate(154,204)"/>
<path d="M0 0 C1.98 0 3.96 0 6 0 C7.32 2.31 8.64 4.62 10 7 C12.34058637 4.87219421 13.70700306 2.88437779 15 0 C16.98 0 18.96 0 21 0 C20.02296079 1.8136477 19.04330895 3.62588817 18.0625 5.4375 C17.24458984 6.95150391 17.24458984 6.95150391 16.41015625 8.49609375 C15 11 15 11 14 12 C13.76636119 13.84891946 13.58696365 15.70488031 13.4375 17.5625 C13.35371094 18.57441406 13.26992188 19.58632812 13.18359375 20.62890625 C13.12300781 21.41136719 13.06242187 22.19382813 13 23 C11.35 23 9.7 23 8 23 C8.00902344 22.33355469 8.01804687 21.66710937 8.02734375 20.98046875 C7.75836763 12.6188199 4.74447684 7.71411605 0 1 C0 0.67 0 0.34 0 0 Z " fill="#E6E8E6" transform="translate(250,204)"/>
<path d="M0 0 C2.9375 1 2.9375 1 4.8125 2.6875 C6.26881969 5.68104603 6.2808901 7.703455 5.9375 11 C4.5375 14.7 4.5375 14.7 1.9375 16 C-3.35827465 16.56338028 -3.35827465 16.56338028 -5.9375 14.5 C-7.5377025 10.94399444 -7.76023981 7.83364906 -7.0625 4 C-4.92234528 0.62514064 -4.01391599 0 0 0 Z " fill="#3A312D" transform="translate(238.0625,207)"/>
<path d="M0 0 C1.65 0 3.3 0 5 0 C5 6.27 5 12.54 5 19 C8.63 19 12.26 19 16 19 C16 20.32 16 21.64 16 23 C10.72 23 5.44 23 0 23 C0 15.41 0 7.82 0 0 Z " fill="#DCE2E3" transform="translate(296,204)"/>
<path d="M0 0 C2.64 0 5.28 0 8 0 C9.125 3.75 9.125 3.75 8 6 C9.45652918 8.64883276 9.45652918 8.64883276 11.4375 11.5 C15 16.79843444 15 16.79843444 15 19 C12.73828125 19.26953125 12.73828125 19.26953125 10 19 C7.98046875 17.13671875 7.98046875 17.13671875 6.1875 14.6875 C5.58292969 13.88699219 4.97835937 13.08648437 4.35546875 12.26171875 C3 10 3 10 3 7 C2.01 6.67 1.02 6.34 0 6 C0 4.02 0 2.04 0 0 Z " fill="#E9E8E6" transform="translate(209,208)"/>
<path d="M0 0 C0.33 0 0.66 0 1 0 C1.1953125 2.01822917 1.390625 4.03645833 1.5859375 6.0546875 C1.86374749 8.22668245 1.86374749 8.22668245 4 10 C6.53951544 9.90888062 6.53951544 9.90888062 9 9 C9.66 8.01 10.32 7.02 11 6 C12.32 6.33 13.64 6.66 15 7 C14.8125 9.3125 14.8125 9.3125 14 12 C11.30404478 14.23379146 9.47377444 14.9407782 6 15.375 C2.58139521 14.9476744 0.71799099 14.0967359 -2 12 C-2.33 11.01 -2.66 10.02 -3 9 C-2.34 8.01 -1.68 7.02 -1 6 C-0.60986284 4.0103005 -0.26797351 2.00980131 0 0 Z " fill="#ECEBEB" transform="translate(112,212)"/>
<path d="M0 0 C0.66 0 1.32 0 2 0 C2.35568204 2.91659271 2.58631182 5.13596153 0.88671875 7.640625 C0.42910156 8.19234375 -0.02851563 8.7440625 -0.5 9.3125 C-3.72348252 13.36228367 -3.5089466 17.01232333 -3 22 C-6.875 20.25 -6.875 20.25 -8 18 C-8.81816015 13.72738589 -8.52895317 11.8964491 -6.28515625 8.09375 C-4.28261895 5.28367957 -2.30961688 2.56469505 0 0 Z " fill="#ECEBEB" transform="translate(233,95)"/>
<path d="M0 0 C1.2065625 0.0309375 1.2065625 0.0309375 2.4375 0.0625 C3.0975 2.0425 3.7575 4.0225 4.4375 6.0625 C3.7775 6.7225 3.1175 7.3825 2.4375 8.0625 C2.27068891 11.14597826 2.27068891 11.14597826 2.4375 14.0625 C0.7875 14.0625 -0.8625 14.0625 -2.5625 14.0625 C-2.5625 11.4225 -2.5625 8.7825 -2.5625 6.0625 C-2.8925 6.7225 -3.2225 7.3825 -3.5625 8.0625 C-4.2225 8.0625 -4.8825 8.0625 -5.5625 8.0625 C-3.38616071 0.08258929 -3.38616071 0.08258929 0 0 Z " fill="#E7E9E8" transform="translate(282.5625,203.9375)"/>
<path d="M0 0 C1.2065625 0.0309375 1.2065625 0.0309375 2.4375 0.0625 C3.4275 3.0325 4.4175 6.0025 5.4375 9.0625 C4.7775 9.7225 4.1175 10.3825 3.4375 11.0625 C2.1175 9.7425 0.7975 8.4225 -0.5625 7.0625 C-0.8925 8.0525 -1.2225 9.0425 -1.5625 10.0625 C-3.2125 10.3925 -4.8625 10.7225 -6.5625 11.0625 C-6.0872412 9.41553396 -5.60718109 7.76995272 -5.125 6.125 C-4.85816406 5.20847656 -4.59132812 4.29195312 -4.31640625 3.34765625 C-3.23802118 0.07897613 -3.23802118 0.07897613 0 0 Z " fill="#ECEDEC" transform="translate(140.5625,203.9375)"/>
<path d="M0 0 C1.18142578 0.13148438 1.18142578 0.13148438 2.38671875 0.265625 C3.33998047 0.50539062 3.33998047 0.50539062 4.3125 0.75 C4.6425 1.41 4.9725 2.07 5.3125 2.75 C3.9925 2.42 2.6725 2.09 1.3125 1.75 C1.3125 2.41 1.3125 3.07 1.3125 3.75 C0.384375 4.03875 -0.54375 4.3275 -1.5 4.625 C-4.78541667 5.6375 -4.78541667 5.6375 -7.6875 7.75 C-8.3475 7.75 -9.0075 7.75 -9.6875 7.75 C-10.0175 10.72 -10.3475 13.69 -10.6875 16.75 C-11.3475 16.42 -12.0075 16.09 -12.6875 15.75 C-13.10526675 9.69238206 -12.81014203 6.55974903 -8.6875 1.75 C-5.62034327 -0.20831149 -3.58311195 -0.45010993 0 0 Z " fill="#DEE5EA" transform="translate(238.6875,203.25)"/>
<path d="M0 0 C0.99 0 1.98 0 3 0 C3.05416741 2.72943537 3.09375225 5.45778564 3.125 8.1875 C3.15013672 9.34088867 3.15013672 9.34088867 3.17578125 10.51757812 C3.21266851 14.8149434 2.9958504 18.07901831 1 22 C0.67 22 0.34 22 0 22 C0 14.74 0 7.48 0 0 Z " fill="#F7F6F6" transform="translate(297,204)"/>
<path d="M0 0 C2.64 0 5.28 0 8 0 C8.5625 1.9375 8.5625 1.9375 9 4 C8 5 8 5 6.15234375 5.09765625 C4.1015625 5.06510417 2.05078125 5.03255208 0 5 C0 3.35 0 1.7 0 0 Z " fill="#2F2725" transform="translate(209,208)"/>
<path d="M0 0 C2.9375 0.8125 2.9375 0.8125 6 2 C7.09898702 5.29696105 6.87124444 6.40494903 6.0625 9.6875 C5.86785156 10.49574219 5.67320312 11.30398437 5.47265625 12.13671875 C5.31667969 12.75160156 5.16070312 13.36648437 5 14 C4.67 14 4.34 14 4 14 C3.89042969 13.38511719 3.78085938 12.77023438 3.66796875 12.13671875 C3.43013672 10.92435547 3.43013672 10.92435547 3.1875 9.6875 C2.96126953 8.48673828 2.96126953 8.48673828 2.73046875 7.26171875 C1.92427764 4.76554413 0.97947998 3.67577894 -1 2 C-0.67 1.34 -0.34 0.68 0 0 Z " fill="#EFF2F3" transform="translate(240,205)"/>
<path d="M0 0 C0.33 0 0.66 0 1 0 C1.12375 1.2375 1.2475 2.475 1.375 3.75 C1.75746305 6.8762197 2.30549523 9.28879237 4 12 C3.01 12.66 2.02 13.32 1 14 C-0.32 12.68 -1.64 11.36 -3 10 C-2.690625 9.46375 -2.38125 8.9275 -2.0625 8.375 C-0.82172561 5.6015043 -0.4090325 2.99957163 0 0 Z " fill="#E2DCD4" transform="translate(112,212)"/>
<path d="M0 0 C2.03125 0.05078125 2.03125 0.05078125 4.5 0.3125 C5.3146875 0.39113281 6.129375 0.46976563 6.96875 0.55078125 C7.97421875 0.77314453 7.97421875 0.77314453 9 1 C9.33 1.66 9.66 2.32 10 3 C8.68 2.67 7.36 2.34 6 2 C6 2.66 6 3.32 6 4 C3.69 4.66 1.38 5.32 -1 6 C-1.042721 4.33388095 -1.04063832 2.66617115 -1 1 C-0.67 0.67 -0.34 0.34 0 0 Z " fill="#E9E7E5" transform="translate(234,203)"/>
<path d="M0 0 C0.66 0.33 1.32 0.66 2 1 C2.36923077 6.53846154 2.36923077 6.53846154 0.5 8.875 C-0.2425 9.431875 -0.2425 9.431875 -1 10 C-2 9 -2 9 -2.09765625 7.15234375 C-2.06510417 5.1015625 -2.03255208 3.05078125 -2 1 C-1.34 0.67 -0.68 0.34 0 0 Z " fill="#F2F5F7" transform="translate(110,211)"/>
<path d="M0 0 C0.33 0 0.66 0 1 0 C1 7.59 1 15.18 1 23 C0.34 23 -0.32 23 -1 23 C-1.33 21.68 -1.66 20.36 -2 19 C-1.34 19 -0.68 19 0 19 C0 12.73 0 6.46 0 0 Z " fill="#2A1E23" transform="translate(295,204)"/>
<path d="M0 0 C2.5654594 2.5654594 2.54046087 4.47686668 3 8 C1.35 8 -0.3 8 -2 8 C-1.125 2.25 -1.125 2.25 0 0 Z " fill="#433A38" transform="translate(282,210)"/>
<path d="M0 0 C0.66 0.66 1.32 1.32 2 2 C0.14375 2.1546875 0.14375 2.1546875 -1.75 2.3125 C-5.2792866 2.73801682 -7.37160966 3.48112592 -10 6 C-10 3 -10 3 -8.375 1.3125 C-5.36640438 -0.35014495 -3.39011269 -0.36849051 0 0 Z " fill="#3E3631" transform="translate(285,296)"/>
<path d="M0 0 C0.99 0 1.98 0 3 0 C3 2.97 3 5.94 3 9 C2.01 9 1.02 9 0 9 C0 6.03 0 3.06 0 0 Z " fill="#F6F5F6" transform="translate(259,217)"/>
<path d="M0 0 C1.9451 2.91765 2.45276317 4.62537285 3 8 C1.35 8 -0.3 8 -2 8 C-1.125 1.125 -1.125 1.125 0 0 Z " fill="#423733" transform="translate(140,210)"/>
<path d="M0 0 C0.33 0 0.66 0 1 0 C0.67 2.31 0.34 4.62 0 7 C-1.32 7.33 -2.64 7.66 -4 8 C-3.67 6.35 -3.34 4.7 -3 3 C-2.34 3 -1.68 3 -1 3 C-0.67 2.01 -0.34 1.02 0 0 Z " fill="#EFF1F2" transform="translate(280,209)"/>
</svg>
